<?xml version="1.0" encoding="UTF-8" standalone="no"?><!DOCTYPE svg PUBLIC "-//W3C//DTD SVG 1.1//EN" "http://www.w3.org/Graphics/SVG/1.1/DTD/svg11.dtd"><svg width="100%" height="100%" viewBox="0 0 1853 1876" version="1.1" xmlns="http://www.w3.org/2000/svg" xmlns:xlink="http://www.w3.org/1999/xlink" xml:space="preserve" style="fill-rule:evenodd;clip-rule:evenodd;stroke-linejoin:round;stroke-miterlimit:1.41421;"><g id="Layer-1"><path d="M367.452,754.281c40.341,5.233 91.512,28.837 126.3,40.829c34.12,11.758 61.654,20.417 99.012,20.417c18.633,0 38.804,-1.73 56.8,1.362c20.388,3.504 24.746,10.996 40.625,18.15c81.942,36.909 157.875,38.659 251.854,41.571c52.73,1.638 87.538,27.817 135.68,39.104c65.916,15.459 133.566,7.35 203.166,10.896c35.109,1.796 70.717,4.7 101.792,15.758c28.212,10.038 48.012,13.884 81.129,14.821c48.854,1.392 87.004,0.854 131.717,-12.333c28.504,-8.404 52.091,-11.642 76.933,-6.629c-4.471,-403.813 -333.146,-729.8 -738.021,-729.8c-346.841,0 -637.754,239.241 -716.85,561.691c43.342,-3.7 113.967,-20.495 149.863,-15.837" style="fill:#2a3890;fill-rule:nonzero;"/><path d="M323.549,638.086c-2.146,-0.666 -5.867,-1.541 -8.283,-2.979c-3.854,-2.283 -5.379,-7.062 -2.775,-11.454c2.816,-4.75 6.854,-5.017 10.916,-3.7l38.809,12.979l0.108,-0.179l-27.196,-30.308c-4.491,-5.084 -4.883,-8.713 -2.6,-12.563c2.288,-3.85 5.659,-5.246 12.275,-3.742l39.634,9.346l0.104,-0.183l-29.988,-27.842c-3.104,-2.929 -4.8,-6.604 -1.987,-11.354c2.608,-4.387 7.533,-5.342 11.383,-3.054c2.421,1.437 4.971,4.279 6.588,5.842l33.762,33.116c5.979,5.85 8.925,9.659 4.779,16.646c-3.291,5.554 -7.879,6.95 -14.083,5.567l-34.729,-8.004l-0.108,0.179l23.675,26.641c4.187,4.788 5.158,9.475 1.862,15.03c-4.146,6.987 -8.904,6.229 -16.9,3.783l-45.246,-13.767Z" style="fill:#fff;fill-rule:nonzero;"/><path d="M373.36,543.535c-4.304,-3.292 -4.238,-8.355 -1.579,-11.83l15.687,-20.533c3.225,-4.217 7.604,-4.804 11.329,-1.954c3.892,2.971 4.313,7.225 1.088,11.446l-10.567,13.825l10.679,8.158l9.68,-12.662c3.225,-4.225 7.525,-4.871 11.333,-1.963c3.808,2.913 4.308,7.229 1.083,11.45l-9.679,12.663l11.013,8.416l10.941,-14.321c3.229,-4.22 7.442,-4.933 11.334,-1.958c3.725,2.842 4.308,7.225 1.083,11.45l-16.067,21.025c-2.658,3.475 -7.525,4.871 -11.829,1.583l-45.529,-34.795Z" style="fill:#fff;fill-rule:nonzero;"/><path d="M445.142,527.01c2.808,-3.079 9.612,-4.204 15.441,-10.595c4.421,-4.85 3.571,-8.867 0.875,-11.325c-4.158,-3.788 -9.358,0.212 -18.125,5.187c-7.975,4.575 -16.854,8.746 -26.783,-0.308c-11.933,-10.879 -9.062,-25.317 0.413,-35.713c9.125,-10.008 17.645,-12.396 22.42,-8.041c3.388,3.087 3.813,7.566 0.796,10.879c-3.65,4 -6.925,3.416 -11.766,8.725c-3.088,3.391 -3.421,7.312 -0.725,9.771c3.154,2.875 6.345,0.15 17.058,-5.875c8.408,-4.742 17.842,-8.125 28.233,1.35c12.625,11.512 9.834,26.02 -0.766,37.645c-6.671,7.313 -19.625,15.805 -25.784,10.192c-3.387,-3.092 -4.729,-8.121 -1.287,-11.892" style="fill:#fff;fill-rule:nonzero;"/><path d="M464.276,450.647l-6.958,6.442c-4.134,3.821 -8.55,3.65 -11.734,0.208c-3.329,-3.596 -3.012,-7.858 1.117,-11.683l26.312,-24.342c4.13,-3.821 8.405,-3.8 11.73,-0.208c3.183,3.446 3.012,7.858 -1.117,11.683l-6.958,6.438l34.104,36.866c4.033,4.363 3.487,8.984 -0.109,12.309c-3.591,3.329 -8.245,3.516 -12.279,-0.842l-34.108,-36.871Z" style="fill:#fff;fill-rule:nonzero;"/><path d="M561.037,426.083l7.383,-5.067c10.825,-7.425 10.767,-18.375 3.459,-29.029c-7.075,-10.305 -17,-13.73 -27.138,-6.775l-7.987,5.483l24.283,35.387Zm-42.267,-31.766c-3.062,-4.463 -1.42,-9.254 2.188,-11.729l16.662,-11.438c18.209,-12.492 38.417,-5.133 49.205,10.583c13.729,20.013 7.875,40.205 -7.242,50.575l-16.663,11.434c-3.608,2.475 -8.666,2.283 -11.733,-2.184l-32.417,-47.241Z" style="fill:#fff;fill-rule:nonzero;"/><path d="M614.842,375.02c4.633,8.746 13.196,10.221 20.562,6.321c7.363,-3.904 11.042,-11.862 6.413,-20.612l-16.875,-31.85c-2.779,-5.25 -1.063,-9.575 3.266,-11.871c4.325,-2.292 8.867,-1.275 11.65,3.967l16.871,31.858c9.167,17.304 2.85,34.087 -13.721,42.871c-16.57,8.775 -33.912,4.525 -43.083,-12.784l-16.871,-31.854c-2.779,-5.25 -1.062,-9.575 3.263,-11.871c4.329,-2.287 8.875,-1.275 11.654,3.967l16.871,31.858Z" style="fill:#fff;fill-rule:nonzero;"/><path d="M656.079,313.554c-2.129,-5.542 0.092,-9.633 4.663,-11.387c4.179,-1.609 6.346,-0.325 14.137,4.27l38.75,22.7l0.192,-0.07l-12.634,-32.859c-2.133,-5.541 0.088,-9.633 4.659,-11.387c4.571,-1.759 8.958,-0.209 11.087,5.333l20.638,53.658c2.129,5.542 -0.092,9.63 -4.659,11.388c-4.179,1.608 -6.445,0.358 -14.141,-4.267l-38.746,-22.708l-0.196,0.075l12.633,32.858c2.134,5.542 -0.087,9.629 -4.658,11.388c-4.567,1.758 -8.958,0.208 -11.087,-5.329l-20.638,-53.663Z" style="fill:#fff;fill-rule:nonzero;"/><path d="M763.265,329.879l10.283,-2.684c5.446,-1.412 9.384,-4.487 7.967,-9.929c-1.417,-5.446 -6.958,-6.05 -11.8,-4.791l-10.283,2.683l3.833,14.721Zm-7.617,-29.246l7.463,-1.938c4.637,-1.208 6.858,-4.266 5.704,-8.7c-1.158,-4.441 -4.483,-6.045 -9.221,-4.816l-7.462,1.941l3.516,13.513Zm-21.508,-15.608c-1.362,-5.242 1.808,-9.192 6.042,-10.292l19.262,-5.017c12.4,-3.233 22.159,2.413 25.05,13.504c1.917,7.359 -2.1,13.034 -5,15.946c9.217,-0.575 16.675,4.917 19.013,13.888c2.966,11.396 -1.717,23.596 -19.359,28.196l-20.27,5.275c-4.234,1.104 -8.93,-0.796 -10.292,-6.042l-14.446,-55.458Z" style="fill:#fff;fill-rule:nonzero;"/><path d="M831.232,272.485l-0.209,0.034l-4.862,28.246l17.512,-2.671l-12.441,-25.609Zm-14.938,-1.2c1.746,-8.595 3.25,-15.987 11.596,-17.262c8.55,-1.3 12.192,5.308 16.417,12.992l22.679,40.912c3.058,5.538 3.667,7.45 4.042,9.921c0.629,4.121 -2.259,7.3 -6.996,8.025c-5.459,0.829 -7.742,-2.408 -9.996,-6.804l-3.063,-6.279l-27.4,4.179l-1.054,6.904c-0.837,4.871 -2.054,8.637 -7.517,9.471c-4.733,0.721 -8.437,-1.45 -9.066,-5.571c-0.379,-2.471 -0.367,-4.479 0.9,-10.679l9.458,-45.809Z" style="fill:#fff;fill-rule:nonzero;"/><path d="M891.601,280.925l11.129,-0.559c5.513,-0.275 8.45,-4.071 8.217,-8.754c-0.25,-4.996 -4.25,-7.812 -9.033,-7.579l-11.129,0.562l0.816,16.33Zm-18.029,-22.663c-0.271,-5.408 3.633,-8.629 8.004,-8.846l20.284,-1.021c14.979,-0.745 25.212,7.917 25.908,21.75c0.546,10.921 -5.713,19.159 -16.225,21.667l15.458,15.075c2.413,2.383 3.759,4.296 3.9,7.104c0.121,2.392 -1.791,7.909 -8.241,8.234c-4.367,0.22 -6.005,-1.267 -8.217,-3.759l-22.008,-25.071l-0.209,0.009l1.071,21.325c0.296,5.929 -3.087,9.125 -7.979,9.366c-4.888,0.246 -8.575,-2.595 -8.871,-8.525l-2.875,-57.308Z" style="fill:#fff;fill-rule:nonzero;"/><path d="M952.533,263.456l-9.471,-0.362c-5.621,-0.217 -8.621,-3.459 -8.442,-8.142c0.188,-4.892 3.421,-7.687 9.042,-7.471l35.804,1.379c5.617,0.217 8.629,3.25 8.442,8.142c-0.179,4.683 -3.425,7.688 -9.042,7.471l-9.475,-0.367l-1.929,50.167c-0.229,5.933 -3.883,8.817 -8.775,8.629c-4.892,-0.192 -8.312,-3.346 -8.083,-9.279l1.929,-50.167Z" style="fill:#fff;fill-rule:nonzero;"/><path d="M1007.5,288.46c-1.608,11.663 2.1,23.638 15,25.417c12.9,1.779 19.713,-8.742 21.321,-20.404c1.613,-11.658 -2.1,-23.633 -14.996,-25.413c-12.9,-1.779 -19.716,8.742 -21.325,20.4m54.275,7.492c-3.216,23.325 -19.637,36.404 -41.412,33.4c-21.771,-3.004 -34.038,-20.046 -30.817,-43.371c3.217,-23.316 19.642,-36.404 41.413,-33.396c21.77,3 34.037,20.046 30.816,43.367" style="fill:#fff;fill-rule:nonzero;"/><path d="M1081.16,270.821c1.529,-5.737 5.729,-7.741 10.458,-6.483c4.329,1.154 5.329,3.467 8.937,11.762l18.034,41.134l0.2,0.05l9.071,-34.017c1.529,-5.737 5.729,-7.742 10.458,-6.479c4.729,1.258 7.375,5.092 5.846,10.825l-14.813,55.558c-1.529,5.738 -5.729,7.746 -10.458,6.484c-4.329,-1.155 -5.429,-3.496 -8.938,-11.759l-18.033,-41.137l-0.2,-0.054l-9.071,34.016c-1.525,5.738 -5.729,7.742 -10.458,6.484c-4.729,-1.263 -7.371,-5.092 -5.846,-10.83l14.813,-55.554Z" style="fill:#fff;fill-rule:nonzero;"/><path d="M1148.2,338.334c3.888,1.5 7.4,7.433 15.463,10.546c6.121,2.367 9.554,0.121 10.867,-3.279c2.025,-5.25 -3.584,-8.642 -11.396,-15.004c-7.146,-5.775 -14.25,-12.538 -9.413,-25.071c5.817,-15.054 20.309,-17.613 33.425,-12.546c12.629,4.875 17.934,11.95 15.609,17.975c-1.65,4.271 -5.667,6.292 -9.846,4.683c-5.05,-1.954 -5.688,-5.212 -12.392,-7.8c-4.275,-1.654 -8.054,-0.541 -9.367,2.854c-1.537,3.984 2.163,5.971 11.655,13.767c7.462,6.121 14.029,13.679 8.966,26.796c-6.154,15.929 -20.683,18.583 -35.35,12.917c-9.229,-3.563 -21.833,-12.559 -18.829,-20.334c1.65,-4.275 5.846,-7.337 10.608,-5.504" style="fill:#fff;fill-rule:nonzero;"/><path d="M1209.41,375.936c-2.713,5.279 -7.246,6.346 -11.6,4.108c-4.355,-2.237 -6.121,-6.541 -3.409,-11.825l26.288,-51.133c2.716,-5.279 7.246,-6.346 11.6,-4.108c4.354,2.237 6.12,6.545 3.408,11.825l-9.142,17.783l27.975,14.383l9.142,-17.783c2.713,-5.283 7.246,-6.35 11.6,-4.113c4.354,2.238 6.121,6.546 3.408,11.821l-26.287,51.138c-2.713,5.279 -7.246,6.346 -11.6,4.108c-4.354,-2.238 -6.121,-6.542 -3.408,-11.825l10,-19.454l-27.975,-14.379l-10,19.454Z" style="fill:#fff;fill-rule:nonzero;"/><path d="M1276.38,413.607c-3.146,5.038 -7.75,5.721 -11.904,3.129c-4.154,-2.591 -5.558,-7.033 -2.413,-12.071l30.463,-48.783c3.146,-5.037 7.75,-5.725 11.904,-3.125c4.154,2.592 5.558,7.029 2.413,12.067l-30.463,48.783Z" style="fill:#fff;fill-rule:nonzero;"/><path d="M1320.01,402.255l9,6.57c4.459,3.255 9.134,2.155 11.896,-1.629c2.946,-4.037 1.617,-8.75 -2.254,-11.575l-9,-6.575l-9.642,13.209Zm0.255,-28.959c3.191,-4.375 8.254,-4.421 11.787,-1.841l16.404,11.975c12.109,8.845 14.613,22.025 6.446,33.208c-6.45,8.833 -16.5,11.296 -26.246,6.629l2.525,21.442c0.375,3.375 0.217,5.708 -1.441,7.979c-1.413,1.933 -6.371,5.021 -11.588,1.212c-3.533,-2.583 -3.871,-4.762 -4.021,-8.095l-1.325,-33.334l-0.166,-0.121l-12.592,17.242c-3.5,4.796 -8.142,5.146 -12.092,2.263c-3.954,-2.892 -5.033,-7.421 -1.533,-12.213l33.841,-46.346Z" style="fill:#fff;fill-rule:nonzero;"/><path d="M1374.59,414.124c3.575,-4.075 8.621,-3.667 11.912,-0.779l19.425,17.041c3.996,3.509 4.284,7.921 1.192,11.442c-3.233,3.683 -7.504,3.812 -11.5,0.312l-13.079,-11.479l-8.867,10.109l11.983,10.512c3.996,3.504 4.35,7.838 1.188,11.442c-3.159,3.6 -7.5,3.812 -11.496,0.304l-11.983,-10.513l-9.142,10.417l13.55,11.888c3.996,3.508 4.421,7.762 1.188,11.441c-3.092,3.525 -7.501,3.817 -11.496,0.313l-19.896,-17.459c-3.292,-2.887 -4.354,-7.841 -0.779,-11.912l37.8,-43.079Z" style="fill:#fff;fill-rule:nonzero;"/><path d="M1439.39,475.069c4.45,-3.933 9.058,-3.279 12.304,0.392c3.242,3.671 3.321,8.325 -1.129,12.254l-37.633,33.25l12.004,13.583c3.516,3.984 3.404,8.259 -0.267,11.5c-3.512,3.105 -7.925,2.834 -11.442,-1.15l-17.591,-19.912c-2.896,-3.279 -3.325,-8.325 0.737,-11.908l43.017,-38.009Z" style="fill:#fff;fill-rule:nonzero;"/><path d="M1474.06,515.312c4.325,-3.259 9.179,-1.834 11.813,1.654l15.545,20.629c3.196,4.238 2.588,8.617 -1.158,11.438c-3.908,2.945 -8.117,2.204 -11.312,-2.038l-10.471,-13.887l-10.729,8.087l9.595,12.725c3.196,4.242 2.663,8.55 -1.162,11.438c-3.825,2.883 -8.117,2.204 -11.317,-2.038l-9.587,-12.721l-11.063,8.338l10.846,14.387c3.2,4.238 2.75,8.492 -1.158,11.438c-3.742,2.821 -8.121,2.204 -11.317,-2.034l-15.921,-21.125c-2.633,-3.495 -2.666,-8.55 1.659,-11.816l45.737,-34.475Z" style="fill:#fff;fill-rule:nonzero;"/><path d="M1468.19,605.872c-4.955,3.262 -9.425,1.971 -12.121,-2.121c-2.692,-4.083 -2.117,-8.704 2.841,-11.971l48.009,-31.621c4.958,-3.262 9.429,-1.966 12.121,2.121c2.695,4.088 2.116,8.704 -2.842,11.971l-48.008,31.621Z" style="fill:#fff;fill-rule:nonzero;"/><path d="M1486.55,613.827c2.046,3.633 0.979,10.45 5.221,17.983c3.22,5.721 7.304,6.175 10.483,4.383c4.9,-2.758 2.729,-8.95 0.75,-18.833c-1.842,-9.008 -3.021,-18.746 8.692,-25.342c14.07,-7.925 26.883,-0.671 33.787,11.588c6.642,11.804 6.238,20.637 0.609,23.808c-3.992,2.25 -8.384,1.254 -10.58,-2.65c-2.658,-4.725 -1.075,-7.646 -4.604,-13.912c-2.25,-3.992 -5.871,-5.542 -9.046,-3.75c-3.725,2.095 -2.133,5.979 0.234,18.041c1.866,9.471 2.125,19.492 -10.134,26.392c-14.887,8.383 -27.791,1.179 -35.512,-12.533c-4.854,-8.621 -8.854,-23.588 -1.592,-27.68c3.992,-2.25 9.188,-1.941 11.692,2.505" style="fill:#fff;fill-rule:nonzero;"/><path d="M1529,672.05c-9.079,3.942 -11.213,12.367 -7.892,20.013c3.321,7.645 10.979,11.929 20.054,7.987l33.063,-14.371c5.45,-2.362 9.633,-0.321 11.583,4.171c1.95,4.496 0.592,8.946 -4.854,11.313l-33.063,14.366c-17.966,7.804 -34.216,0.209 -41.691,-16.991c-7.471,-17.2 -1.892,-34.167 16.075,-41.971l33.062,-14.363c5.446,-2.366 9.629,-0.321 11.579,4.171c1.95,4.487 0.592,8.942 -4.854,11.308l-33.062,14.367Z" style="fill:#fff;fill-rule:nonzero;"/><path d="M1569.03,740.67l3.295,10.646c1.63,5.275 6.034,7.179 10.509,5.796c4.779,-1.475 6.525,-6.05 5.112,-10.625l-3.295,-10.646l-15.621,4.829Zm17.504,-23.075c5.171,-1.6 9.258,1.392 10.55,5.571l6,19.4c4.433,14.329 -1.429,26.387 -14.667,30.483c-10.446,3.229 -19.979,-0.8 -25.008,-10.366l-10.784,18.708c-1.712,2.929 -3.233,4.704 -5.916,5.542c-2.292,0.704 -8.113,0.212 -10.021,-5.955c-1.292,-4.179 -0.258,-6.133 1.613,-8.891l18.85,-27.525l-0.063,-0.196l-20.396,6.304c-5.671,1.754 -9.604,-0.733 -11.05,-5.412c-1.446,-4.675 0.396,-8.955 6.063,-10.709l54.829,-16.954Z" style="fill:#fff;fill-rule:nonzero;"/><path d="M1605.69,782.87c5.296,-1.125 9.1,2.225 10.005,6.508l5.362,25.271c1.104,5.2 -1.304,8.908 -5.896,9.879c-4.787,1.012 -8.287,-1.438 -9.391,-6.638l-3.613,-17.016l-13.146,2.787l3.309,15.592c1.104,5.2 -1.205,8.883 -5.896,9.879c-4.688,0.996 -8.288,-1.437 -9.392,-6.633l-3.308,-15.592l-13.554,2.871l3.741,17.629c1.1,5.204 -1.104,8.863 -5.896,9.883c-4.583,0.971 -8.291,-1.437 -9.391,-6.637l-5.492,-25.888c-0.908,-4.279 1.204,-8.879 6.504,-10.004l56.054,-11.891Z" style="fill:#fff;fill-rule:nonzero;"/><path d="M1672.56,945.581c-20.984,1.367 -43.542,0.213 -63.975,3.613c-24.538,4.087 -45.013,19.141 -73.725,21.916c-27.042,2.617 -54.609,3.63 -82.325,3.888c0.241,1.45 0.341,2.779 0.283,3.837c-3.425,60.6 -16.117,115.867 -40.371,172.434c-22.179,51.729 -52.846,99.754 -90.362,141.712c-98.063,109.675 -240.509,173.471 -387.642,173.471c-287.133,0 -519.9,-232.762 -519.9,-519.9c0,-25.542 4.633,-51.546 7.671,-76.854c0.35,-2.917 0.441,-7.375 0.721,-12.196c-26.925,-3.058 -53.98,-5.746 -82.146,-5.862c-27.767,-0.117 -48.142,4.62 -72.142,11.379c-25.242,7.104 -52.121,9.037 -68.671,9.775c-2.408,24.262 -3.662,48.866 -3.662,73.758c0,407.658 330.475,738.129 738.129,738.129c407.658,0 738.129,-330.471 738.129,-738.129c0,-0.325 -0.012,-0.646 -0.012,-0.971" style="fill:#2a3890;fill-rule:nonzero;"/><path d="M469.248,632.19c7.034,-35.058 27.788,-37.025 45.513,-47.6c16.271,-9.712 33.442,-25.983 51.471,-16.983c1.833,-22.88 23.641,-6.9 33.775,-13.013c15.379,-9.271 27.958,-11.242 46.816,-9.821c5.6,0.421 11.788,4.538 17.58,1.984c15.425,-6.8 24.141,-35.242 36.733,-48.692c18.496,-19.767 33.158,-19.783 55.358,-19.783c7.813,0 15.746,0.533 23.559,0c9.379,-0.65 19.358,-7.463 28.654,-5.746c15.121,2.791 23.187,11.854 40.412,-0.379c30,-21.309 45.017,-60.705 81.484,-64.7c12.687,-1.392 22.816,3.037 35.15,2.32c18.891,-1.104 32.787,-10.095 51.175,1.346c14.308,8.904 20.92,27.429 32.312,37.171c10.971,9.383 27.192,15.925 40.446,18.588c42.7,8.566 89.979,-26.1 127.15,15.112c7.783,8.629 15.896,16.425 23.625,25.017c5.787,6.437 12.625,20.862 18,24.575c8.092,5.604 22.233,5.621 30.708,9.012c17.179,6.875 32.7,-8.496 48.842,6.125c14.275,12.938 22.775,30.492 37.487,42.659c14.738,12.183 28.43,34.929 39.063,53.179c7.183,12.312 14.292,25.333 21.479,35.579c5.408,7.712 11.338,15.092 17.05,22.579c3.571,4.683 6.975,9.733 10.721,14.363c-89.238,-203.796 -292.659,-346.192 -529.371,-346.192c-201.325,0 -378.558,103.008 -481.963,259.175c6.509,0.462 12.963,2.475 16.771,4.125" style="fill:#fff;fill-rule:nonzero;"/><path d="M1452.83,960.905c-63.625,0.137 -76.417,-2.325 -116.504,-3.717c-27.179,-0.937 -43.425,-4.783 -66.579,-14.821c-25.5,-11.058 -54.721,-13.962 -83.534,-15.754c-57.112,-3.55 -112.629,4.559 -166.725,-10.9c-39.504,-11.287 -68.07,-37.466 -111.341,-39.1c-77.121,-2.916 -138.825,12.205 -206.075,-24.704c-13.029,-7.154 -18.042,-16.175 -34.775,-19.679c-14.767,-3.092 -30.488,-16.704 -45.779,-16.704c-30.659,0 -63.675,9.071 -91.675,-2.688c-28.55,-11.991 -61.467,-24.071 -94.571,-29.308c-16.709,-2.646 -34.334,-6.804 -52.079,-10.138c-17.159,54.671 -26.421,112.834 -26.421,173.163c0,319.033 258.633,577.662 577.666,577.662c313.913,0 569.342,-250.391 577.463,-562.35c-18.242,-2.091 -39.296,-1.004 -59.071,-0.962" style="fill:#fff;fill-rule:nonzero;"/><path d="M414.538,946.554c0,287.133 232.767,519.896 519.9,519.896c147.134,0 289.579,-63.792 387.642,-173.467c37.513,-41.963 68.179,-89.983 90.363,-141.713c24.25,-56.566 36.945,-111.833 40.37,-172.433c0.059,-1.062 -0.041,-2.387 -0.283,-3.842c-44.725,0.421 -89.85,-1.133 -133.821,-1.133c-58.754,0 -112.458,-7.742 -169.637,-12.65c-6.971,0.167 -13.917,0.229 -20.821,0.083c-22.558,-0.475 -45.034,-7.1 -67.321,-13.841c-15.763,-3.809 -31.35,-8.067 -47.104,-12.325c-1.671,-0.296 -3.346,-0.604 -5.017,-0.846c-18.175,-2.65 -35.787,-4.521 -54.062,-8.092c-12.305,-2.4 -24.959,-5.762 -37.792,-9.091c-37.683,-1.671 -75.525,1.541 -114.392,-1.571c-54.75,-4.384 -89.712,-39.171 -137.854,-51.996c-55.787,-14.867 -109.55,5.562 -165.837,1.758c-25.729,-1.737 -50.779,-4.925 -75.942,-7.787c-0.279,4.816 -0.371,9.275 -0.721,12.196c-3.037,25.308 -7.671,51.308 -7.671,76.854" style="fill:#2a3890;fill-rule:nonzero;"/><path d="M212.296,795.952c11.884,-8.521 104.759,-16.859 144.475,-12.513c42.654,4.667 51.667,13.654 77.238,22.788c56.437,20.15 78.337,22.791 137.108,34.266c-65.471,-2.945 -120.367,-3.716 -183.125,-17.745c-54.746,-12.238 -129.392,4.245 -183.121,22.079c0,0 3.067,-45.746 7.425,-48.875" style="fill:#2a3890;fill-rule:nonzero;"/><path d="M1326.86,1049.26l127.775,-152.546l-186.116,1.296l-55.121,86.616l-0.829,-86.666l-134.205,0l0,85.154c-40.566,-65.45 -109.566,-109.646 -201.47,-109.646c-85.671,0 -151.904,38.858 -193.692,97.483l-0.008,-84.962l-142.675,-0.833l-152.371,41.987l35.146,151.796l69.875,-16.333l-0.142,222.741l-20.242,-0.291l0.192,98.92l228.758,0.121l0,-55.766c41.38,44.8 100.209,73.1 173.713,73.1c113.396,0 192.721,-68.067 226.371,-159.971l106.166,0l0,-72.321l17.046,-17.338l52.709,100.417l179.516,0.492l-130.396,-203.45Z" style="fill:#2a3890;fill-rule:nonzero;"/><path d="M1302.09,1047.48l110.625,-137.826l-123.316,0l-90.23,118.784l0,-118.784l-106.091,0l0,177.759c-18.159,-105.159 -95.388,-189.396 -216.25,-189.396c-113.229,0 -189.054,74.804 -213.321,170.933l0,-164.375l-116.113,0l-137.104,37.392l27.554,113.487l74.784,-16.395l0,261.358l-25.263,0l0,66.642l200.417,0l0,-66.642l-24.275,0l0,-92.746c24.087,95.563 98.983,169.229 212.012,169.229c120.988,0 199.246,-85.408 217.559,-190.979l0,41.1l106.091,0l0,-67.554l27.209,-33.096l62.112,100.65l126.496,0l-112.896,-179.542Z" style="fill:#fff;fill-rule:nonzero;"/><path d="M1057.6,660.445c0.083,-0.72 0.216,-1.337 0.221,-1.958c0.016,-6.092 0.008,-12.179 0.008,-18.267c0,-0.429 0.042,-0.866 -0.029,-1.283c-0.263,-1.612 -1.554,-2.204 -2.692,-1.075c-1.175,1.167 -2.196,2.55 -3.05,3.983c-1.958,3.284 -4.441,5.842 -8.75,6.742c0.554,0.917 0.904,1.629 1.375,2.246c0.888,1.175 2.013,2.2 2.75,3.45c2.267,3.875 5.779,5.55 10.167,6.162m77.458,133.838c-3.679,-8.058 -4.104,-16.133 -3.967,-24.325c0.051,-3.271 0.088,-6.533 -0.47,-9.846c-0.505,-2.979 -0.534,-5.658 -2.538,-8.454c-3.383,-4.733 -4.912,-10.413 -4.687,-16.413c0.112,-3.1 -0.371,-6.283 0.17,-9.291c0.825,-4.613 2.4,-9.084 3.48,-13.659c0.816,-3.475 1.487,-6.97 1.562,-10.6c0.088,-4.341 -0.683,-8.716 0.521,-13.033c0.267,-0.954 -0.358,-1.658 -1.35,-1.8c-0.704,-0.1 -1.438,-0.021 -2.592,-0.021c0.75,6.942 1.471,13.604 2.18,20.138c-2.363,1.204 -4.405,2.25 -6.109,3.121c-0.587,5.983 -1,11.679 -1.75,17.329c-0.683,5.196 -1.404,10.421 -2.687,15.487c-1.98,7.792 -4.409,15.471 -6.755,23.171c-0.504,1.654 -0.504,3.121 0,4.775c1.413,4.629 2.575,9.329 2.409,14.242c-0.054,1.566 -0.254,3.141 1.587,4.041c0.459,0.221 0.663,1.05 0.892,1.634c0.521,1.329 0.979,2.675 1.479,4.046c6.179,-1.705 12.129,-1.667 18.625,-0.542m-21.604,20.429c-1.5,1.75 -1.542,3.338 -1.304,5.429c0.662,5.859 1.654,11.717 0.487,17.717c-0.641,3.308 -0.062,6.842 -0.183,10.262c-0.146,4.08 0.7,7.963 1.937,11.792c0.855,2.638 2.23,4.913 4.155,6.996c3.12,3.371 5.883,7.071 8.875,10.567c0.808,0.941 1.887,1.658 2.887,2.42c1.675,1.275 3.471,2.396 5.054,3.767c3.809,3.308 1.917,5.579 -0.729,7.404c-2.133,1.467 -4.625,2.538 -7.096,3.371c-4.258,1.438 -8.579,2.754 -12.962,3.725c-2.246,0.496 -4.696,0.267 -7.038,0.108c-1.554,-0.104 -2.804,-1.083 -3.179,-2.683c-0.404,-1.737 -0.787,-3.517 -0.837,-5.287c-0.125,-4.067 -0.071,-8.142 -0.021,-12.213c0.012,-1.042 0.292,-2.079 0.421,-3.121c0.087,-0.733 0.3,-1.504 0.17,-2.208c-0.695,-3.708 -1.308,-7.438 -2.262,-11.079c-2.317,-8.821 -5.904,-17.2 -9.325,-25.625c-0.229,-0.563 -0.675,-1.063 -1.096,-1.525c-3.575,-3.875 -4.937,-6.792 -5.508,-12.2c-2.359,3.308 -4.534,6.337 -6.688,9.387c-2.179,3.088 -4.337,6.192 -6.525,9.325c0,0.046 -0.041,0.171 0.005,0.254c1.962,3.792 2.091,7.446 -0.196,11.271c-0.859,1.438 -1.263,3.467 -1.092,5.15c0.692,6.838 -2.183,12.788 -4.396,18.892c-1.458,4.033 -4.975,5.112 -8.537,2.412c-3.3,-2.508 -5.238,-5.904 -5.804,-10.091c-0.676,-4.975 0.333,-9.784 1.458,-14.534c0.771,-3.266 0.687,-6.145 -1.204,-9.041c-1.08,-1.65 -1.65,-3.613 -1.542,-5.713c0.104,-2.029 0.125,-4.079 0,-6.104c-0.3,-4.987 1.654,-5.792 6.208,-6.479c1.709,-0.258 3.542,0.342 5.321,0.504c0.733,0.067 1.479,0.013 2.258,0.013c1.717,-5.3 2.48,-10.655 3.038,-16.105c0.492,-4.762 2.85,-8.945 5.508,-12.912c2.517,-3.754 4.854,-7.604 5.709,-12.15c0.075,-0.413 0.225,-0.821 0.254,-1.233c0.229,-2.875 0.729,-5.767 0.566,-8.621c-0.225,-3.975 -0.695,-7.984 -1.57,-11.863c-0.463,-2.05 -1.738,-4.075 -3.113,-5.721c-3.075,-3.683 -5.254,-7.887 -7.287,-12.141c-2.163,-4.525 -3.934,-9.242 -5.734,-13.929c-2.408,-6.263 -4.446,-12.638 -5.383,-19.325c-0.521,-3.738 -1.358,-7.434 -1.858,-11.18c-0.592,-4.408 0.529,-8.625 2.066,-12.695c1.084,-2.867 1.409,-5.584 0.621,-8.646c-0.542,-2.1 -0.104,-4.45 -0.104,-6.475c-2.204,0 -4.175,0.021 -6.142,-0.025c-0.383,-0.009 -0.804,-0.238 -1.129,-0.475c-7.062,-5.109 -14.158,-10.184 -21.146,-15.392c-1.7,-1.271 -3.308,-2.821 -4.525,-4.546c-3.025,-4.283 -2.55,-7.283 0.738,-11.887c2.875,-4.029 6.471,-7.542 9.4,-11.538c3.283,-4.479 6.233,-9.208 9.208,-13.904c1.517,-2.392 2.775,-4.904 4.688,-7.083c1.85,-2.113 4.266,-3.209 6.662,-3.129c3.875,0.129 6.217,-2.33 8.983,-4.113c1.584,-1.025 2.892,-2.471 4.384,-3.65c2.216,-1.762 4.837,-2.471 7.608,-2.662c1.154,-0.08 2.321,-0.017 3.604,-0.017c-0.204,-1.167 -0.346,-2.067 -0.525,-2.954c-0.375,-1.825 -0.696,-3.446 -2.629,-4.667c-3.108,-1.962 -4.083,-5.517 -4.958,-8.892c-0.384,-1.495 1.112,-3.07 3.466,-4.029c-0.12,-1.091 -0.304,-2.246 -0.362,-3.408c-0.233,-4.404 0.658,-8.625 2.558,-12.567c3.304,-6.85 9.567,-8.775 15.854,-7.596c1.717,0.325 3.421,1.009 4.992,1.805c4.075,2.07 6.163,5.57 6.808,10.037c0.388,2.713 0.821,5.313 0.109,8.125c-0.463,1.838 0.371,3.963 0.4,5.958c0.05,3.571 0.866,7.238 -1.184,10.592c-1.212,1.979 -0.637,4.188 -0.47,6.254c0.054,0.696 1.37,1.6 2.27,1.871c2.7,0.825 5.471,1.413 8.23,2.038c3.166,0.712 6.408,1.166 9.508,2.095c3.571,1.075 6.221,3.53 7.767,6.917c1.516,3.317 2.75,6.754 4.179,10.308c2.946,-0.787 5.579,-2.504 8.258,-4.12c2.692,-1.63 5.275,-3.455 8.067,-4.884c1.829,-0.937 3.9,-1.579 5.929,-1.854c1.583,-0.217 2.054,-1.162 2.15,-2.242c0.275,-3.091 -0.163,-6.112 -1.633,-8.895c-0.267,-0.509 -0.742,-0.95 -1.213,-1.296c-2.462,-1.817 -3.379,-4.529 -4.087,-7.296c-0.217,-0.863 0.179,-1.871 0.22,-2.817c0.071,-1.675 0.3,-3.383 0.08,-5.021c-0.421,-3.07 -0.425,-6.029 0.137,-9.12c0.671,-3.688 2.938,-6.009 5.817,-7.646c2.316,-1.321 4.966,-2.313 7.833,-2.075c1.279,0.104 2.579,0.1 3.858,0.004c6.08,-0.467 10.271,2.517 13.525,7.271c0.121,0.175 0.213,0.387 0.371,0.516c3.875,3.292 2.721,7.605 2.679,12.1c2.275,2.846 1.971,6.359 0.921,9.975c-0.316,1.1 -0.787,2.234 -0.754,3.342c0.242,7.863 -0.504,9.238 -3.942,16.646c2.55,1.967 5.592,2.529 8.705,2.875c1.058,0.117 2.17,-0.067 3.187,0.175c5.733,1.371 8.054,4.4 8.083,10.396c0.013,2.896 0.146,5.796 -0.029,8.675c-0.371,6.216 1.521,11.825 4.113,17.325c1.337,2.829 3.341,5.375 3.787,8.633c0.059,0.433 1.088,0.925 1.734,1.05c0.929,0.183 1.941,-0.075 2.875,0.1c1.1,0.2 2.387,0.379 2.325,2.025c-0.013,0.304 0.016,0.788 0.204,0.9c3.491,2.083 2.691,6.279 4.554,9.154c0.662,1.021 0.367,1.817 -0.467,2.517c-1.587,1.333 -3.021,3.017 -4.841,3.871c-2.95,1.391 -6.259,1.379 -9.234,0.025c-3.012,-1.375 -5.262,-3.588 -5.821,-7.188c-0.158,-1.012 -1.162,-1.896 -2.208,-3.496c-0.746,4.85 -1.571,8.909 -1.921,13.005c-0.216,2.487 0.275,5.033 0.504,7.55c0.134,1.466 0.475,2.912 0.546,4.379c0.096,2.029 -0.004,4.066 0.029,6.108c0.092,5.629 -0.408,11.213 -1.241,16.783c-0.421,2.817 -0.438,5.696 -0.704,8.542c-0.338,3.596 1.016,6.821 2.1,10.117c1.887,5.758 3.762,11.525 5.637,17.291c1.096,3.38 2.154,6.775 3.267,10.15c1.196,3.625 1.737,7.338 1.9,11.159c0.262,6.191 -0.875,12.225 -1.609,18.316c-0.229,1.884 0.2,3.934 0.734,5.796c0.654,2.279 0.841,4.354 0.308,6.767c-0.829,3.787 -1.237,7.721 -1.337,11.604c-0.196,7.604 -0.1,15.217 -0.046,22.825c0.046,7.6 -1.984,14.767 -4.563,21.788c-2.641,7.208 -4.912,14.575 -3.633,22.237c0.633,3.788 2.025,7.854 4.992,10.733c2.954,2.867 6.25,5.384 9.391,8.055c1.125,0.958 2.363,1.816 3.346,2.895c1.925,2.117 1.917,4.4 0.004,6.53c-2.016,2.241 -4.371,3.933 -7.554,4.137c-2.317,0.146 -4.625,0.413 -6.937,0.621c-3.363,0.308 -6.505,-0.363 -9.496,-1.95c-0.792,-0.421 -1.8,-0.554 -2.717,-0.592c-2.142,-0.083 -4.287,-0.004 -6.429,-0.037c-2.175,-0.029 -3.579,-1.171 -4.008,-3.263c-0.109,-0.512 -0.125,-1.079 -0.038,-1.6c0.829,-4.95 -0.275,-9.891 -0.062,-14.841c0.087,-2.042 0.525,-3.725 2.033,-5.134c0.517,-0.479 1.079,-1.15 1.167,-1.796c0.333,-2.512 0.62,-5.045 0.679,-7.579c0.104,-4.604 -0.104,-9.221 0.066,-13.821c0.15,-3.975 -0.579,-7.762 -1.52,-11.575c-0.934,-3.779 -1.684,-7.591 -1.763,-11.525c-0.125,-6.129 1.492,-11.879 3.567,-17.525c1.104,-3.016 2.008,-6.037 1.579,-9.27c-0.229,-1.746 -0.433,-3.605 -1.175,-5.159c-2.413,-5.05 -3.813,-10.4 -5.317,-15.75c-1.05,-3.712 -2.533,-7.321 -4.037,-10.887c-1.871,-4.442 -4.192,-8.675 -6.917,-12.659c-1.05,-1.533 -2.1,-2.45 -4.158,-0.787c0.433,3.979 0.829,7.917 -0.125,11.912c-0.538,2.242 -0.404,4.634 -0.775,6.921c-0.959,5.942 -0.579,11.917 -0.588,17.879c-0.004,1.888 0.342,3.775 0.579,5.659c0.625,4.912 -1.425,8.741 -5.112,11.662c-2.188,1.734 -4.6,3.167 -7.179,4.417c-3.646,1.767 -6.934,1.329 -10.325,-0.188c-2.684,-1.2 -5.188,-3.075 -7.988,-3.7c-5.562,-1.254 -10.325,-3.92 -15.079,-6.825c-1.75,-1.07 -3.875,-1.52 -6.029,-2.333" style="fill:#fff;fill-rule:nonzero;"/><path d="M952.918,664.563c0.25,0.088 0.495,0.175 0.741,0.263c0.875,-0.934 1.717,-1.896 2.621,-2.792c1.088,-1.079 1.629,-2.317 1.954,-3.854c0.675,-3.2 -0.079,-6.133 -1.179,-9.15c-1.771,5.087 -2.979,10.304 -4.137,15.533m-53.042,2.075c-3.021,-5.825 -4.625,-11.733 -4.821,-17.975c-1.071,2.5 -2.046,4.896 -3.117,7.25c-2.437,5.367 1.442,10.988 7.938,10.725m27.612,66.992c-0.312,0.137 -0.625,0.283 -0.941,0.421c0.7,1.896 1.458,3.771 2.083,5.687c0.679,2.075 1.375,4.163 1.804,6.296c0.417,2.05 0.65,4.167 0.684,6.263c0.033,2.12 -0.271,4.254 -0.43,6.387l8.063,0c0.437,-4.55 -0.488,-8.704 -2.671,-12.475c-2.087,-3.612 -4.525,-7.025 -6.85,-10.504c-0.5,-0.742 -1.158,-1.388 -1.742,-2.075m-100.27,-117.967c-1.567,4.309 -4.271,7.596 -7.425,10.617c-0.796,0.758 -1.23,1.958 -1.638,3.029c-0.404,1.063 -0.208,2.05 0.846,2.808c1.704,1.221 3.296,2.609 5.025,3.788c2.017,1.371 3.867,3.179 6.662,3.25c1.042,-8.233 -2.029,-15.725 -3.47,-23.492m68.429,65.071c-2.775,-0.804 -5.563,-1.621 -8.617,-2.508c-0.312,2.9 -0.696,5.496 -0.846,8.1c-0.141,2.454 -0.162,4.933 -0.008,7.387c0.533,8.492 -1.421,16.521 -4.083,24.492c-1.85,5.55 -3.517,11.187 -4.825,16.883c-1.034,4.496 -1.259,9.167 -2.092,13.717c-0.6,3.275 -1.45,6.529 -2.5,9.692c-1.063,3.208 -3.267,5.375 -7.096,5.666c0.279,4.325 -0.371,8.517 0.525,12.784c0.817,3.904 1.008,7.945 1.396,11.933c0.475,4.942 0.792,9.904 1.325,14.842c0.342,3.212 1.554,6.133 4.029,8.325c2.746,2.429 4.008,5.333 3.679,9.025c-0.333,3.712 1.396,6.95 2.775,10.233c0.692,1.646 1.604,3.2 2.363,4.821c0.929,1.971 0.579,3.029 -1.35,4.046c-0.734,0.391 -1.534,0.837 -2.329,0.9c-3.596,0.304 -7.196,0.462 -10.796,0.695c-2.375,0.155 -4.379,-0.9 -6.038,-2.308c-1.925,-1.637 -1.904,-4.262 -1.146,-6.246c2.171,-5.671 1.863,-11.508 1.63,-17.308c-0.167,-4.063 -1.284,-8.063 -2.721,-11.917c-2.479,-6.666 -4.896,-13.358 -7.534,-19.966c-2.316,-5.8 -3.404,-11.896 -4.287,-17.984c-0.342,-2.337 -1.254,-4.891 -0.275,-7.4c0.071,-0.191 -0.483,-0.621 -0.679,-0.862c-1.259,2.421 -2.475,4.791 -3.721,7.15c-0.625,1.187 -1.175,2.45 -1.983,3.508c-1.896,2.488 -1.092,5.525 -1.763,8.263c-1.108,4.537 -3.7,5.933 -8.108,4.125c-4.104,-1.68 -5.584,-5.067 -6.017,-8.892c-0.312,-2.783 -0.375,-5.667 0.363,-8.558c0.504,-1.98 1.22,-3.588 2.725,-4.834c1.475,-1.225 1.625,-2.625 0.945,-4.283c-0.395,-0.967 -0.645,-2.004 -1.129,-2.921c-1.429,-2.687 -1.533,-5.667 -0.941,-8.392c0.6,-2.77 2.637,-4.883 5.458,-6c1.792,-0.704 3.337,0.1 4.604,1.03c2.125,1.566 3.946,3.537 6.004,5.204c1.05,0.854 2.338,1.425 3.517,2.125c0.192,-0.159 0.383,-0.317 0.575,-0.475c-0.342,-1.113 -0.763,-2.204 -1.008,-3.329c-1.23,-5.675 -3.446,-10.884 -6.313,-15.98c-4.633,-8.237 -8.367,-16.962 -10.237,-26.279c-1.43,-7.1 -1.425,-14.266 1.029,-21.283c2.283,-6.533 2.166,-13.35 1.941,-20.142c-0.02,-0.641 -0.741,-1.429 -1.345,-1.85c-1.392,-0.979 -2.28,-2.204 -2.438,-3.887c-0.125,-1.371 -1.004,-2.088 -1.942,-2.988c-2.42,-2.316 -5.22,-3.679 -8.358,-4.841c-5.246,-1.942 -9.908,-5.059 -14.221,-8.646c-0.65,-0.542 -1.275,-1.175 -1.733,-1.879c-1.821,-2.784 -1.342,-5.53 0.387,-8.142c1.446,-2.188 3.154,-4.217 4.471,-6.471c3.654,-6.254 7.1,-12.608 9.983,-19.283c1.476,-3.409 2.605,-7.134 5.584,-9.792c2.471,-2.196 5.229,-3.604 8.55,-3.483c2.337,0.087 4.292,-0.45 6.183,-1.904c2.946,-2.263 6.342,-3.638 10.238,-4.067c0.087,-3.338 0.646,-6.604 -0.738,-9.792c-3.821,-0.908 -5.666,-4.779 -4.687,-9.575c0.3,-1.471 0.312,-2.654 -0.229,-3.933c-1.742,-4.113 0.445,-8.288 3.333,-10.333c1.975,-1.392 3.696,-2.955 5.379,-4.692c2.988,-3.096 6.896,-3.9 11.113,-3.067c0.508,0.104 0.995,0.313 1.5,0.434c3.92,0.908 6.054,3.466 6.8,7.32c1.12,5.809 2.45,11.625 2.033,17.563c-0.379,5.433 -0.858,10.937 -4.575,15.712c2.404,1.575 5.117,1.78 7.683,2.471c5.725,1.546 11.334,3.467 15.504,7.967c3.334,3.6 4.596,7.858 3.571,12.808c-0.271,1.309 0.304,2.796 0.538,4.542c3.887,-2.388 7.441,-4.567 10.991,-6.75c1.296,-0.8 1.809,-1.913 1.75,-3.479c-0.079,-2.125 0.071,-4.113 -1.779,-5.834c-1.808,-1.679 -2.162,-4.304 -2.575,-6.608c-0.241,-1.346 0.442,-3.175 1.317,-4.325c0.883,-1.158 1.021,-2.225 1.092,-3.512c0.154,-2.85 0.07,-5.771 0.695,-8.525c1.813,-8.038 12.392,-14.08 20.525,-8.775c4.055,2.645 6.834,6.504 7.575,11.27c0.671,4.284 0.592,8.684 0.713,13.034c0.025,0.996 -0.433,2.025 -0.763,3.012c-0.62,1.867 -1.308,3.704 -2.012,5.688c2.079,0.383 3.817,0.95 5.562,0.971c2.955,0.033 5.638,0.97 8.109,2.325c3.575,1.966 7.121,4.079 10.383,6.516c4.9,3.663 7.071,9.034 8.346,14.842c1.008,4.6 1.954,9.225 3.237,13.746c0.763,2.696 1.838,5.396 3.284,7.783c3.029,5.013 3.262,10.296 1.604,15.579c-1.746,5.579 -4.083,10.971 -6.229,16.421c-0.379,0.954 -1.088,1.783 -1.671,2.654c-1.533,2.304 -3.629,4.117 -3.767,7.375c-0.125,2.934 -2.116,5.225 -5.258,6.184c-0.754,2.3 0.937,4 1.629,5.879c1.842,5.029 3.433,10.108 4.538,15.341c0.154,0.721 0.054,1.492 0.054,2.242c0.004,10.183 0.125,20.363 -0.059,30.538c-0.079,4.529 -0.895,9.037 -1.158,13.566c-0.2,3.529 0.021,7.071 -0.096,10.604c-0.083,2.53 -0.1,5.138 -0.741,7.555c-0.455,1.716 -1.592,3.541 -2.967,4.658c-1.908,1.542 -4.258,2.612 -6.55,3.579c-0.929,0.396 -2.563,0.45 -3.25,-0.104c-3.883,-3.171 -8.738,-3.996 -13.175,-5.804c-1.067,-0.433 -2.188,-0.734 -3.158,-1.054c-2.313,2.704 -0.009,5.308 0.337,8.008c0.188,1.458 0.542,2.904 0.567,4.362c0.041,2.48 -1.242,3.721 -3.846,4.013c-0.304,0.037 -0.613,0.1 -1.113,0.183c-0.262,3.129 -0.541,6.275 -0.795,9.421c-0.475,5.983 -1.413,11.896 -2.746,17.746c-0.509,2.242 -1.217,4.446 -1.675,6.696c-0.209,1.029 -0.363,2.266 0.012,3.179c1.604,3.921 2.075,8.112 3.242,12.112c0.867,2.971 2.633,5.68 4.021,8.492c0.837,1.696 1.841,3.279 1.687,5.346c-0.116,1.608 -0.754,2.508 -2.241,3.05c-3.121,1.137 -6.375,0.813 -9.492,0.517c-3.292,-0.313 -6.692,-0.709 -9.754,-2.271c-1.479,-0.754 -3.067,-1.329 -4.475,-2.192c-1.925,-1.179 -2.517,-3.017 -1.821,-5.421c1.133,-3.912 2.387,-7.791 3.529,-11.7c0.263,-0.9 0.392,-1.866 0.413,-2.8c0.054,-2.571 0.162,-5.15 -0.017,-7.712c-0.296,-4.317 -0.8,-8.617 -1.213,-12.921c-0.02,-0.217 -0.025,-0.429 -0.033,-0.646c-0.217,-6.492 -0.704,-12.992 -0.521,-19.471c0.079,-2.821 1.488,-5.621 2.384,-8.4c1.312,-4.083 2.766,-8.116 4.025,-12.212c0.395,-1.284 0.429,-2.692 0.516,-4.054c0.088,-1.28 -0.091,-2.58 0.038,-3.855c0.462,-4.487 -0.875,-8.412 -2.867,-12.433c-3.487,-7.033 -6.458,-14.325 -9.55,-21.554c-1.642,-3.85 -3.125,-7.771 -4.575,-11.692c-1.142,-3.079 -1.683,-6.296 -1.675,-9.596c0.008,-3.212 0.017,-6.429 0,-9.641c-0.029,-6.25 1.321,-12.313 2.417,-18.417" style="fill:#fff;fill-rule:nonzero;"/><path d="M1325.18,853.565c2.491,2.17 3.154,4.42 2.237,7.545c-0.504,1.717 0.371,3.913 0.854,5.834c1.171,4.666 2.463,9.304 3.73,13.946c0.841,3.091 1.42,6.262 0.958,9.42c-0.738,5.046 -4.504,8.471 -10.008,6.096c-4.263,-1.837 -8.25,-4.183 -10.892,-8.312c-1.088,-1.696 -1.483,-3.404 -1.567,-5.342c-0.112,-2.633 -0.475,-5.262 -0.587,-7.9c-0.1,-2.296 -1.513,-3.837 -3.154,-4.908c-3.092,-2.034 -4.805,-5.021 -6.092,-8.213c-1.2,-2.983 -2.633,-5.983 -2.388,-9.4c0.138,-1.9 0.509,-3.383 2.417,-4.408c2.196,-1.192 4.038,-3.071 6.279,-4.125c1.646,-0.771 3.688,-0.704 5.9,-1.067c1.784,-3.083 2.892,-6.758 3.425,-10.608c0.688,-5.004 1.125,-10.05 2.013,-15.017c0.571,-3.191 1.929,-6.191 3.666,-8.987c1.555,-2.492 3.034,-5.029 4.471,-7.425c-6.108,-13.713 -11.958,-27.271 -20.483,-39.875c-2.271,1.966 -4.817,3.991 -7.113,6.262c-0.733,0.721 -0.929,2.075 -1.175,3.184c-1.679,7.541 -2.991,15.12 -2.629,22.916c0.238,5.196 -0.346,10.363 -1.208,15.496c-0.35,2.079 -0.588,4.192 -0.629,6.292c-0.075,3.821 -1.854,7.075 -3.234,10.458c-1.304,3.217 -2.504,6.354 -2.72,9.963c-0.346,5.758 -1.167,11.512 -2.538,17.133c-0.846,3.446 -2.087,6.808 -3.304,10.154c-1.467,4.025 -2.55,8.033 -1.167,12.333c0.25,0.78 -0.146,1.763 0.092,2.55c0.475,1.571 0.017,3.58 2.517,4.23c1.42,0.366 1.691,2.291 1.208,3.562c-1.792,4.708 -0.042,8.804 2.033,12.796c0.909,1.742 2.421,3.167 3.584,4.787c1.704,2.371 3.475,4.663 4.204,7.642c0.8,3.292 0.004,5.079 -3.229,5.754c-4.717,0.988 -9.434,0.942 -14.205,0.142c-1.787,-0.304 -3.529,-0.442 -5.112,-1.396c-1.813,-1.104 -3.054,-2.542 -3.271,-4.758c-0.142,-1.459 -0.296,-2.95 -0.712,-4.35c-0.538,-1.809 -1.338,-3.409 -3.192,-4.479c-3.713,-2.146 -4.804,-6.963 -3.183,-11.217c1.008,-2.646 2.141,-5.258 3.45,-7.767c1.754,-3.346 2.15,-6.675 1.212,-10.387c-0.792,-3.146 -0.921,-6.454 -1.425,-9.675c-0.721,-4.563 -1.433,-9.129 -2.296,-13.659c-0.904,-4.737 -1.508,-9.579 -0.75,-14.258c0.692,-4.262 2.259,-8.392 6.246,-11.225c2.729,-1.937 2.854,-5.308 2.529,-8.442c-0.275,-2.608 -0.912,-5.175 -1.187,-7.783c-0.517,-4.833 -0.863,-9.683 -1.329,-14.525c-0.388,-3.987 -0.821,-7.975 -1.3,-11.954c-0.15,-1.25 -0.442,-2.258 -2.167,-2.575c-2.946,-0.538 -3.583,-1.613 -3.592,-4.617c-0.012,-3.571 0.075,-7.137 -0.033,-10.7c-0.063,-2.212 -0.246,-4.441 -0.65,-6.616c-1.671,-9 -0.313,-17.625 2.85,-26.096c1.633,-4.375 2.237,-8.938 2.387,-13.625c0.155,-4.742 0.788,-9.467 1.18,-14.209c0.075,-0.941 0.008,-1.891 0.008,-2.845c-1.838,0.129 -3.475,0.241 -5.117,0.35c-4.516,0.308 -6.679,-1.867 -8.187,-5.555c-1.538,-3.758 -1.863,-7.579 -0.3,-11.637c1.612,-4.188 2.658,-8.563 2.854,-13.196c0.158,-3.708 1.629,-7.342 2.233,-11.058c0.663,-4.05 1.121,-8.142 1.459,-12.234c0.495,-6.012 2.216,-11.75 5.787,-16.437c3.183,-4.179 7.108,-7.929 11.604,-10.892c1.929,-1.266 3.796,-2.633 5.767,-3.825c1.825,-1.108 2.633,-2.654 2.592,-4.733c-0.025,-1.179 -0.1,-2.367 0.016,-3.533c0.242,-2.371 -0.233,-4.305 -2.216,-5.938c-1.688,-1.392 -2.259,-3.579 -2.259,-5.708c0,-2.784 -0.812,-5.425 -1.083,-8.121c-0.392,-3.808 -0.492,-7.729 0,-11.504c0.55,-4.217 3.992,-6.596 7.354,-8.646c4.171,-2.546 8.788,-4.008 13.638,-4.525c3.866,-0.413 7.516,0.704 10.975,2.337c1.3,0.617 2.387,1.684 3.687,2.288c2.975,1.387 3.033,3.937 2.458,6.475c-0.258,1.129 -0.17,1.929 0.121,2.979c0.788,2.817 1.367,5.7 1.963,8.563c0.104,0.487 0.004,1.079 -0.179,1.554c-1.034,2.629 -1.025,5.362 -1.088,8.129c-0.075,3.387 -0.396,6.771 -0.621,10.158c-0.021,0.313 -0.029,0.667 -0.179,0.929c-1.229,2.155 -1.704,4.475 -1.925,6.938c-0.112,1.3 -0.921,2.542 -1.421,3.825c3.329,1.217 6.721,2.371 10.042,3.7c1.35,0.542 2.621,1.362 3.783,2.25c3.263,2.492 4.334,5.883 3.821,9.875c-0.229,1.775 -0.404,3.558 -0.604,5.337c-0.179,1.563 -0.471,3.13 -0.5,4.696c-0.017,1.121 0.458,2.254 0.475,3.379c0.054,4.821 0.233,9.659 -0.046,14.463c-0.217,3.654 -0.95,7.292 -1.646,10.9c-1.379,7.125 -1.033,14.033 2.234,20.617c0.379,0.77 1.137,1.5 1.904,1.895c2.421,1.255 4.896,2.417 7.412,3.467c1.6,0.667 2.021,1.625 1.567,3.254c-0.225,0.821 0.042,1.771 -0.117,2.625c-0.612,3.284 -1.4,6.521 -3.612,9.175c-0.379,0.454 -0.967,0.746 -1.479,1.088c-0.692,0.458 -1.4,0.891 -2.35,1.496c0.562,0.904 1.029,1.65 1.491,2.4c2.479,4.025 4.996,8.016 7.384,12.087c0.504,0.863 0.737,1.996 0.75,3.008c0.07,5.463 0.033,10.925 0.033,16.396c0,0.209 0.062,0.45 -0.013,0.638c-1.458,3.525 0.484,6.479 1.484,9.641c1.571,4.988 3,10.021 4.275,15.092c0.841,3.346 1.579,6.771 1.866,10.2c0.463,5.508 0.688,11.05 0.655,16.579c-0.013,2.234 -0.838,4.475 -1.805,6.621c-1.279,2.85 -2.066,5.913 -3.258,8.804c-2.204,5.35 -4.954,10.425 -8.337,15.109c-2.38,3.291 -4.909,6.504 -7.621,9.525c-3.109,3.466 -5.267,7.312 -6.109,11.9c-0.05,0.287 -0.275,0.545 -0.541,1.05" style="fill:#fff;fill-rule:nonzero;"/><path d="M693.156,636.247c-1.863,3.404 -3.729,6.813 -5.792,10.588c2.884,0.741 5.479,1.408 8.334,2.141c0.62,-4.725 -2.005,-8.5 -2.542,-12.729m16.633,-47.304c-4.083,-1.683 -5.829,-4.933 -5.087,-9.325c0.058,-0.313 0.133,-0.633 0.121,-0.95c-0.109,-2.717 -0.234,-5.429 -0.363,-8.321c-0.929,0.383 -2.017,0.838 -3.129,1.296c-1.275,-2.571 -0.063,-4.738 1.204,-6.558c1.383,-1.984 1.242,-4.15 1.379,-6.225c0.067,-1.092 -1.116,-2.263 -1.896,-3.7c5.084,-0.584 9.175,1.425 13.088,4.4c2.354,-0.709 4.762,-1.271 7.371,-0.755c2.725,0.542 5.1,1.384 6.641,3.909c1.042,1.704 2.571,3.166 3.338,4.975c0.775,1.812 0.917,3.908 1.267,5.896c0.441,2.495 1.058,4.987 1.166,7.504c0.163,3.858 -1.141,7.516 -2.346,11.133c-0.35,1.054 -1.379,1.867 -1.945,2.875c-0.65,1.158 -1.138,2.413 -1.763,3.771c1.196,0.575 2.004,1.104 2.896,1.362c2.946,0.859 5.929,1.6 8.883,2.434c2.142,0.608 4.304,1.183 6.371,1.983c1.863,0.721 3.308,2.058 3.4,4.213c0.1,2.445 0.542,5.075 -0.15,7.316c-1.783,5.738 -0.987,11.404 -0.337,17.1c0.437,3.825 -0.042,7.579 -0.442,11.354c-0.225,2.113 -0.604,4.205 -0.879,6.313c-0.338,2.558 0.666,4.575 2.533,6.254c1.988,1.788 3.917,3.638 5.913,5.413c2.804,2.495 3.1,3.762 1.329,7.216c-0.517,1 -1.329,1.842 -1.771,2.442c-1.967,-0.604 -3.488,-1.229 -5.071,-1.525c-4.121,-0.75 -5.004,-1.571 -5.737,-5.754c-0.046,-0.267 -0.146,-0.554 -0.305,-0.775c-3.083,-4.3 -3.087,-4.3 -3.541,-9.075c-2.967,5.879 -2.675,11.704 -0.879,17.646c0.67,2.216 1.075,4.516 1.616,6.775c0.225,0.92 0.517,1.829 0.725,2.754c0.629,2.783 1.309,5.558 1.825,8.362c0.863,4.692 1.588,9.417 2.425,14.117c1.563,8.771 2.113,17.475 -0.462,26.208c-1.163,3.954 -2.271,8.1 -2.321,12.167c-0.071,5.921 0.854,11.796 2.542,17.604c0.975,3.35 0.666,7.208 0.329,10.779c-0.379,3.996 -1.463,7.917 -2.2,11.879c-0.6,3.246 -1.017,6.525 -1.746,9.734c-0.554,2.45 1.217,5.458 4.408,4.516c3.238,-0.95 5.513,0.18 6.771,3.275c1.792,4.413 1.908,9.709 -1.933,13.667c-1.329,1.367 -2.834,2.288 -4.821,2.083c-2.021,-0.208 -3.4,0.255 -4.096,2.53c-0.637,2.104 -2.796,2.995 -4.721,3.279c-2.833,0.421 -5.737,0.408 -8.416,-1.167c-2.125,-1.246 -2.767,-2.129 -1.805,-4.317c1.221,-2.77 1.725,-5.637 1.921,-8.604c0.025,-0.312 0.046,-0.708 0.234,-0.916c2.883,-3.234 1.241,-7.417 2.283,-11.05c0.35,-1.213 -0.354,-2.705 -0.471,-4.075c-0.487,-5.963 -1.404,-11.796 -3.658,-17.417c-0.767,-1.913 -0.913,-4.167 -0.929,-6.271c-0.03,-4.05 0.337,-8.083 1.595,-11.975c0.65,-2.012 0.567,-3.967 -0.116,-5.946c-0.829,-2.416 -1.679,-4.829 -2.404,-7.279c-0.296,-1.004 -0.442,-2.108 -0.4,-3.154c0.204,-5.083 -0.73,-9.967 -2.605,-14.654c-2.566,-6.421 -3.862,-13.046 -3.595,-19.963c0.025,-0.533 -0.055,-1.066 -0.088,-1.579c-2.346,-0.679 -2.754,-0.512 -3.183,1.383c-1.704,7.463 -3.442,14.917 -5.05,22.396c-0.488,2.279 -0.567,4.646 -0.904,6.963c-0.23,1.571 -0.584,3.121 -0.875,4.679c-0.317,1.662 -0.55,3.35 -0.959,4.987c-0.25,0.988 -0.512,2.367 -1.225,2.767c-1.616,0.913 -2.741,2.271 -4.087,3.438c-1.884,1.641 -4.692,1.62 -6.775,0.133c-0.563,-0.404 -1.167,-0.75 -2.238,-1.433c-0.221,1.883 -0.521,3.304 -0.529,4.729c-0.017,3.312 -1.229,6.241 -2.746,9.054c-1.121,2.083 -4.429,3.692 -6.546,3.283c-2.579,-0.504 -4.004,-2.346 -4.77,-4.679c-0.63,-1.912 -1.021,-3.9 -1.525,-5.854c-1.092,-4.208 -0.209,-8.088 2.275,-11.517c2.1,-2.891 3.1,-5.925 3.012,-9.521c-0.142,-5.75 1.713,-8.179 6.883,-9.887c-0.529,-4.338 -0.837,-8.683 -1.633,-12.942c-0.979,-5.225 -0.454,-10.391 -0.154,-15.6c0.179,-3.191 0.354,-6.454 -0.117,-9.583c-0.371,-2.504 0.146,-4.629 1.063,-6.758c1.004,-2.338 2.221,-4.58 3.35,-6.863c1.825,-3.683 2.433,-7.675 2.933,-11.696c0.05,-0.421 0.117,-0.841 0.246,-1.725c-1.079,0 -2.121,-0.171 -3.083,0.029c-5.167,1.084 -10.163,0.559 -15.063,-1.316c-0.696,-0.263 -1.442,-0.392 -2.167,-0.575c-2.929,-0.729 -4.27,-2.217 -3.766,-5.192c0.491,-2.896 1.583,-5.704 2.516,-8.517c0.467,-1.4 1.325,-2.67 1.75,-4.079c1.496,-4.958 3.884,-9.4 6.942,-13.579c1.008,-1.379 1.204,-3.342 1.821,-5.017c0.921,-2.491 1.504,-5.208 2.904,-7.391c3.008,-4.692 6.538,-8.95 12.046,-11.075c2.362,-0.909 4.546,-2.3 6.762,-3.559c2.496,-1.412 3.467,-3.891 2.75,-6.733c-0.333,-1.346 -0.679,-2.679 -1.004,-3.954" style="fill:#fff;fill-rule:nonzero;"/><path d="M566.66,681.568c-1.629,0.245 -3.554,0.308 -5.295,0.904c-0.788,0.262 -1.409,1.504 -1.767,2.437c-1.175,3.021 -2.138,6.121 -3.288,9.154c-0.891,2.35 -2.016,4.605 -2.895,6.959c-0.475,1.262 -0.663,2.633 -0.963,3.958c-0.4,1.771 -1.029,3.375 -2.496,4.613c-4.046,3.408 -6.062,7.95 -7.204,13.012c-0.342,1.508 -1.171,2.908 -1.733,4.371c-0.696,1.812 -1.609,3.592 -0.825,5.633c0.108,0.279 0.108,0.667 0.004,0.954c-1.442,4.113 -0.633,8.146 -0.1,12.33c0.592,4.641 0.192,9.412 0.112,14.125c-0.033,1.983 -1.191,3.087 -3.1,3.291c-5.5,0.592 -8.629,-1.683 -10.27,-7.125c-0.946,-3.129 -0.817,-6.346 -0.28,-9.7c0.646,-3.987 1.592,-8.071 0.317,-12.271c-0.608,-2.008 1.05,-3.754 2.65,-4.966c1.35,-1.017 1.867,-2.163 1.738,-3.813c-0.271,-3.512 0.329,-6.954 0.954,-10.404c0.933,-5.158 3.741,-9.308 6.946,-13.225c0.833,-1.017 1.104,-1.958 1.095,-3.167c-0.033,-4.075 0.242,-8.166 -0.095,-12.212c-0.267,-3.204 -1.267,-6.338 -1.93,-9.513c-0.212,-1.02 -0.466,-2.045 -0.545,-3.079c-0.521,-6.841 0.704,-13.479 2.345,-20.071c0.205,-0.808 0.2,-1.683 0.205,-2.529c0.016,-4.825 -0.046,-9.646 0.033,-14.466c0.033,-1.78 0.4,-3.55 0.571,-5.33c0.066,-0.725 0.008,-1.462 0.008,-1.875c-3.704,0 -7.208,0.255 -10.662,-0.07c-4.005,-0.375 -5.58,-3.159 -4.388,-7.013c0.279,-0.896 0.642,-1.767 0.967,-2.646c0.621,-1.675 1.608,-3.3 1.787,-5.016c0.396,-3.713 2.321,-6.692 4.009,-9.813c1.354,-2.496 2.858,-4.917 4.05,-7.483c1.362,-2.954 3.125,-5.309 6.133,-6.863c3.912,-2.021 7.587,-4.491 11.433,-6.637c1.896,-1.059 3.95,-1.834 5.717,-2.638c0.692,-2.408 -0.071,-3.862 -1.488,-5.462c-1.925,-2.179 -3.583,-4.684 -2.204,-7.992c0.317,-0.754 -0.187,-1.842 -0.279,-2.775c-0.329,-3.262 -0.625,-6.4 1.217,-9.512c1.496,-2.53 3.691,-3.55 6.179,-3.755c3.129,-0.258 6.312,-0.441 9.387,1.009c2.738,1.291 4.967,3.121 6.955,5.304c0.329,0.358 0.387,1.221 0.22,1.737c-0.75,2.317 -0.445,4.521 0.155,6.834c0.745,2.862 0.608,5.787 -0.163,8.679c-0.454,1.712 -0.658,3.492 -1.083,5.212c-0.296,1.205 -0.771,2.363 -1.129,3.421c1.62,0.804 3.237,1.55 4.795,2.4c2.763,1.504 3.73,3.471 3.434,6.534c-0.259,2.633 -0.617,5.27 -0.609,7.908c0.021,4.783 -0.387,9.5 -1.241,14.217c-0.371,2.07 -0.479,4.375 0.037,6.387c0.679,2.633 2.246,4.967 4.834,6.304c0.833,0.434 1.733,0.738 2.583,1.138c1.625,0.758 2.875,1.771 2.762,3.821c-0.07,1.283 0.017,2.57 -0.016,3.858c-0.071,2.433 -1.004,3.804 -2.917,4.379c-1.479,0.45 -3.633,-0.617 -4.767,-2.383c-0.391,-0.604 -0.741,-1.242 -1.129,-1.854c-0.025,-0.046 -0.196,-0.005 -0.604,-0.005c-0.071,0.842 -0.125,1.734 -0.229,2.621c-0.154,1.354 -0.492,2.709 -0.479,4.059c0.012,1.441 0.054,2.995 0.591,4.291c1.08,2.6 2.492,5.067 3.796,7.567c0.409,0.783 0.229,1.479 0.179,2.312c-0.162,2.513 0.117,5.063 0.242,7.592c0.033,0.633 0.208,1.275 0.163,1.896c-0.184,2.371 0.383,4.608 0.983,6.862c0.242,0.905 0.296,1.884 0.304,2.83c0.033,3.75 -0.008,7.5 0.021,11.254c0.017,2.312 0.292,4.516 0.942,6.829c0.775,2.771 0.241,5.921 0.175,8.904c-0.03,1.254 -0.325,2.5 -0.48,3.75c-0.637,5.225 -0.675,10.513 -1.787,15.7c-0.721,3.383 -0.938,6.879 -1.446,10.313c-0.35,2.391 -0.871,4.75 -1.196,7.137c-0.362,2.696 -0.108,5.579 1.529,7.592c2.709,3.325 4.613,6.971 6.284,10.846c0.525,1.216 1.412,2.612 2.516,3.17c1.888,0.95 2.055,2.196 1.596,4.034c-3.925,2.471 -8.291,2.891 -12.787,1.971c-1.117,-0.221 -2.35,-1.055 -3.025,-1.975c-1.113,-1.521 -2.442,-1.938 -4.134,-1.73c-2.27,0.28 -4.112,-0.716 -5.858,-1.95c-1.592,-1.12 -2.075,-2.612 -1.317,-4.466c0.871,-2.129 1.642,-4.309 2.592,-6.4c0.829,-1.825 1.629,-3.546 1.725,-5.679c0.075,-1.6 1.192,-3.042 1.267,-4.9c0.175,-4.2 -0.879,-8.188 -1.542,-12.242c-0.812,-4.996 -1.217,-9.938 0.033,-14.929c0.613,-2.438 1.18,-4.929 1.35,-7.425c0.275,-3.95 -0.479,-7.763 -2.466,-11.267c-2.534,-4.471 -5.017,-8.967 -7.709,-13.787" style="fill:#fff;fill-rule:nonzero;"/><path d="M961.298,1138.86l0,-1.125c0,-53.862 -32.605,-90.896 -80.375,-90.896c-47.763,0 -78.85,35.909 -78.85,89.775l0,1.121c0,53.863 32.604,90.9 80.37,90.9c47.767,0 78.855,-35.908 78.855,-89.775" style="fill:#2a3890;fill-rule:nonzero;"/><path d="M1347.32,1311.15l7.205,0l-7.205,12.058l0,-12.058Zm0,-59.787l0,-0.688l-43.162,0l-36.329,9.909c-10.059,-7.176 -22.467,-11.28 -36.346,-11.28c-18.758,0 -35.058,7.875 -46.4,20.767c-9.604,-12.55 -25.863,-20.488 -45.058,-20.488c-29.259,0 -44.375,13.792 -55.305,27.284l-10.241,12.646l30.225,25.712l-23.563,16.896l0,48.529l114.204,0l0,-8.846c9.971,6.963 22.213,10.9 35.863,10.9c21.637,0 40.017,-10.454 51.254,-27.104l0,25.05l104.321,0l48.737,-84.008l0,-45.279l-88.2,0Z" style="fill:#2a3890;fill-rule:nonzero;"/><path d="M1097.81,1340.68l39.75,-28.513c6.029,-4.245 8.362,-7.95 8.362,-11.65c0,-4.112 -3.154,-7.129 -8.633,-7.129c-5.488,0 -10.558,3.429 -18.508,11.929l-21.109,-17.958c11.104,-13.708 22.342,-21.108 42.354,-21.108c21.934,0 37.696,13.158 37.696,31.387l0,0.275c0,14.667 -7.812,22.617 -19.325,30.017l-17.133,10.967l37.417,0l0,25.087l-80.871,0l0,-23.304Z" style="fill:#fff;fill-rule:nonzero;"/><path d="M1245.74,1316.28l-0.001,-0.275c0,-13.162 -5.891,-22.208 -14.529,-22.208c-8.637,0 -14.254,8.775 -14.254,21.933l0,0.275c0,13.159 5.892,22.209 14.529,22.209c8.634,0 14.254,-8.775 14.254,-21.934m-60.587,0l0,-0.275c0,-26.454 17.271,-50.033 46.333,-50.033c29.059,0 46.059,23.304 46.059,49.758l0,0.275c0,26.455 -17.275,50.03 -46.334,50.03c-29.058,0 -46.058,-23.3 -46.058,-49.755" style="fill:#fff;fill-rule:nonzero;"/><path d="M1299.13,1295.44l-15.629,3.425l-5.754,-23.713l28.646,-7.812l24.262,0l0,96.637l-31.525,0l0,-68.537Z" style="fill:#fff;fill-rule:nonzero;"/><path d="M1383.9,1294.48l-43.729,0l0,-26.455l78.683,0l0,24.125l-41.671,71.83l-34.817,0l41.534,-69.5Z" style="fill:#fff;fill-rule:nonzero;"/><path d="M330.949,1117.68c4.121,0.55 8.116,1.025 9.7,7.179c1.225,4.733 -1.775,8.95 -5.909,10.017c-1.516,0.391 -5.054,0.012 -6.395,-0.179l-55.667,-7.371c-4.45,-0.567 -9.454,-0.784 -11.013,-6.834c-1.562,-6.05 2.713,-8.658 6.33,-11.312l45.27,-32.967c1.08,-0.816 3.992,-2.862 5.509,-3.246c4.133,-1.07 8.796,1.171 10.016,5.909c1.588,6.15 -1.679,8.5 -5.02,10.971l-33.113,23.383l40.292,4.45Z" style="fill:#fff;fill-rule:nonzero;"/><path d="M334.963,1162.56l-0.071,-0.196l-28.65,0.663l5.988,16.666l22.733,-17.133Zm-1.696,-14.883c8.767,0.054 16.313,0.112 19.167,8.054c2.925,8.133 -2.863,12.983 -9.584,18.608l-35.779,30.125c-4.85,4.063 -6.608,5.029 -8.962,5.875c-3.921,1.409 -7.596,-0.816 -9.217,-5.325c-1.867,-5.196 0.867,-8.058 4.75,-11.116l5.571,-4.213l-9.367,-26.079l-6.979,0.292c-4.942,0.116 -8.875,-0.355 -10.742,-5.55c-1.616,-4.509 -0.195,-8.559 3.725,-9.967c2.35,-0.846 4.321,-1.221 10.65,-1.175l46.767,0.471Z" style="fill:#fff;fill-rule:nonzero;"/><path d="M355.721,1192.32c5.387,-2.492 9.616,-0.542 11.666,3.904c2.055,4.442 0.796,8.921 -4.591,11.413l-45.567,21.054l7.596,16.45c2.229,4.821 0.892,8.879 -3.55,10.933c-4.254,1.963 -8.4,0.438 -10.629,-4.383l-11.138,-24.108c-1.833,-3.971 -0.796,-8.925 4.121,-11.196l52.092,-24.067Z" style="fill:#fff;fill-rule:nonzero;"/><path d="M375.047,1233.8c4.733,-2.634 9.35,-0.55 11.475,3.275l12.55,22.575c2.583,4.645 1.366,8.895 -2.729,11.175c-4.28,2.375 -8.346,1.062 -10.93,-3.584l-8.45,-15.2l-11.741,6.525l7.741,13.929c2.579,4.642 1.459,8.842 -2.729,11.171c-4.187,2.329 -8.346,1.067 -10.929,-3.579l-7.742,-13.925l-12.108,6.729l8.754,15.75c2.579,4.642 1.55,8.788 -2.729,11.171c-4.096,2.279 -8.346,1.063 -10.929,-3.583l-12.854,-23.121c-2.125,-3.825 -1.459,-8.842 3.275,-11.475l50.075,-27.833Z" style="fill:#fff;fill-rule:nonzero;"/><path d="M400.179,1329.48c-9.371,7.129 -15.188,18.229 -7.304,28.592c7.883,10.367 20.137,7.721 29.504,0.591c9.371,-7.124 15.187,-18.229 7.308,-28.591c-7.887,-10.367 -20.137,-7.717 -29.508,-0.592m33.175,43.609c-18.738,14.254 -39.609,11.937 -52.917,-5.555c-13.308,-17.491 -9.967,-38.225 8.767,-52.479c18.737,-14.254 39.608,-11.937 52.916,5.554c13.309,17.492 9.967,38.225 -8.766,52.48" style="fill:#fff;fill-rule:nonzero;"/><path d="M460.413,1359.5c3.975,-3.679 8.95,-2.75 11.92,0.459l17.55,18.95c3.609,3.9 3.438,8.312 0,11.5c-3.591,3.325 -7.854,3.016 -11.462,-0.884l-11.817,-12.758l-9.704,8.983l10.329,11.159c3.608,3.895 3.517,8.241 0,11.495c-3.516,3.259 -7.854,3.017 -11.462,-0.883l-10.334,-11.154l-15.662,14.504c-4.359,4.033 -8.979,3.488 -12.309,-0.104c-3.32,-3.596 -3.512,-8.246 0.842,-12.279l42.109,-38.988Z" style="fill:#fff;fill-rule:nonzero;"/><path d="M512.368,1412.35c3.85,-4.517 8.504,-4.517 12.229,-1.338c3.725,3.171 4.454,7.771 0.604,12.283l-32.575,38.184l13.783,11.758c4.042,3.446 4.525,7.696 1.35,11.421c-3.042,3.562 -7.45,3.912 -11.487,0.467l-20.2,-17.238c-3.33,-2.837 -4.459,-7.771 -0.946,-11.887l37.241,-43.65Z" style="fill:#fff;fill-rule:nonzero;"/><path d="M547.265,1441.9c3.2,-4.371 8.263,-4.413 11.796,-1.821l20.842,15.263c4.287,3.137 4.962,7.504 2.192,11.287c-2.892,3.95 -7.138,4.458 -11.421,1.317l-14.038,-10.279l-7.941,10.845l12.862,9.413c4.283,3.137 5.021,7.425 2.192,11.287c-2.834,3.871 -7.138,4.463 -11.425,1.325l-12.859,-9.42l-8.187,11.183l14.542,10.642c4.287,3.141 5.087,7.341 2.191,11.291c-2.766,3.784 -7.137,4.459 -11.425,1.321l-21.346,-15.633c-3.533,-2.584 -5.025,-7.421 -1.825,-11.792l33.85,-46.229Z" style="fill:#fff;fill-rule:nonzero;"/><path d="M622.196,1490.49c3.334,-2.488 6.521,-4.938 11.959,-1.646c4.187,2.541 4.983,7.65 2.77,11.304c-0.808,1.337 -3.608,3.537 -4.7,4.337l-44.983,33.634c-3.583,2.7 -7.312,6.041 -12.658,2.804c-5.342,-3.242 -4.109,-8.096 -3.371,-12.517l9.35,-55.225c0.204,-1.341 0.862,-4.837 1.671,-6.175c2.212,-3.654 7.116,-5.308 11.304,-2.775c5.429,3.292 4.733,7.254 4.075,11.363l-7.358,39.871l31.941,-24.975Z" style="fill:#fff;fill-rule:nonzero;"/><path d="M638.289,1501.26c2.4,-4.859 7.379,-5.767 11.304,-3.825l23.163,11.446c4.762,2.354 6.179,6.537 4.104,10.741c-2.171,4.392 -6.267,5.621 -11.029,3.267l-15.596,-7.708l-5.954,12.045l14.292,7.067c4.762,2.354 6.224,6.446 4.1,10.742c-2.121,4.296 -6.263,5.616 -11.026,3.266l-14.291,-7.062l-6.138,12.421l16.159,7.987c4.762,2.354 6.271,6.354 4.104,10.742c-2.079,4.204 -6.267,5.621 -11.029,3.267l-23.721,-11.726c-3.925,-1.937 -6.229,-6.445 -3.829,-11.304l25.387,-51.366Z" style="fill:#fff;fill-rule:nonzero;"/><path d="M681.638,1522.84c2.1,-5.55 6.484,-7.125 11.063,-5.392c4.187,1.588 4.946,3.992 7.7,12.604l13.775,42.746l0.191,0.075l12.467,-32.925c2.1,-5.554 6.483,-7.125 11.058,-5.387c4.58,1.733 6.821,5.812 4.721,11.362l-20.354,53.767c-2.104,5.55 -6.487,7.121 -11.062,5.387c-4.188,-1.587 -5.046,-4.025 -7.7,-12.6l-13.775,-42.746l-0.196,-0.07l-12.463,32.92c-2.104,5.55 -6.483,7.121 -11.062,5.388c-4.579,-1.733 -6.821,-5.813 -4.717,-11.367l20.354,-53.762Z" style="fill:#fff;fill-rule:nonzero;"/><path d="M783.954,1564.21l-5.171,-1.216c-5.071,-1.192 -6.7,-5.642 -5.821,-9.396c0.883,-3.75 4.325,-7.008 9.396,-5.813l13.387,3.142c3.75,0.883 7.88,3.354 6.28,10.146l-13.134,55.875c-1.362,5.783 -5.5,7.912 -10.266,6.792c-4.767,-1.117 -7.521,-4.871 -6.163,-10.655l11.492,-48.875Z" style="fill:#fff;fill-rule:nonzero;"/><path d="M830.943,1618.22c10.404,1.588 15.383,-11.037 16.779,-20.208c1.4,-9.167 0.408,-22.7 -9.996,-24.288c-10.404,-1.587 -15.383,11.042 -16.779,20.209c-1.4,9.166 -0.409,22.7 9.996,24.287m9.233,-60.562c21.112,3.216 27.787,23.733 24.85,42.996c-2.933,19.258 -15.421,36.854 -36.533,33.633c-21.117,-3.217 -27.788,-23.733 -24.855,-42.996c2.938,-19.258 15.421,-36.854 36.538,-33.633" style="fill:#fff;fill-rule:nonzero;"/><path d="M874.896,1572.61c0.304,-5.93 3.996,-8.767 8.884,-8.513c4.891,0.25 8.27,3.446 7.966,9.375l-1.058,20.596l24.492,-24.083c3.525,-3.575 5.629,-3.988 8.125,-3.863c3.745,0.196 8.241,4.075 8.012,8.55c-0.129,2.496 -1.817,4.804 -3.679,6.588l-21.108,19.15l20.72,24.945c2.459,2.942 4.425,5.234 4.267,8.355c-0.279,5.408 -4.587,8.104 -9.271,7.866c-4.471,-0.229 -7.487,-4.454 -10.037,-7.604l-22.15,-27.629l-1.263,24.546c-0.3,5.929 -3.996,8.766 -8.883,8.512c-4.888,-0.25 -8.271,-3.45 -7.967,-9.379l2.95,-57.412Z" style="fill:#fff;fill-rule:nonzero;"/><path d="M986.664,1582.92c10.175,-0.82 19.154,6.813 19.975,16.988c0.821,10.175 -6.813,19.15 -16.988,19.975c-10.175,0.821 -19.15,-6.817 -19.975,-16.988c-0.821,-10.175 6.813,-19.154 16.988,-19.975" style="fill:#fff;fill-rule:nonzero;"/><path d="M1053.32,1571.02l-5.212,1.025c-5.113,1.004 -8.434,-2.375 -9.175,-6.159c-0.746,-3.787 1.045,-8.17 6.158,-9.179l13.496,-2.645c3.783,-0.746 8.562,-0.196 9.908,6.65l11.071,56.333c1.146,5.825 -1.75,9.471 -6.554,10.416c-4.804,0.946 -8.863,-1.333 -10.009,-7.162l-9.683,-49.279Z" style="fill:#fff;fill-rule:nonzero;"/><path d="M1118.44,1600.86c10.129,-2.846 9.458,-16.396 6.95,-25.317c-2.505,-8.925 -8.992,-20.842 -19.117,-18c-10.125,2.846 -9.454,16.396 -6.95,25.321c2.508,8.921 8.992,20.841 19.117,17.996m-16.563,-58.955c20.554,-5.775 35.092,10.155 40.358,28.905c5.267,18.75 1.155,39.916 -19.4,45.691c-20.554,5.775 -35.091,-10.158 -40.358,-28.908c-5.267,-18.75 -1.15,-39.917 19.4,-45.688" style="fill:#fff;fill-rule:nonzero;"/><path d="M1152.93,1562.9l-1.759,0.65c-4.883,1.817 -8.804,0.825 -10.616,-4.054c-1.813,-4.884 0.516,-8.192 5.4,-10.009l1.758,-0.65l-3.7,-9.962c-1.629,-4.392 0.192,-9.067 4.683,-10.738c4.492,-1.662 8.921,0.692 10.554,5.088l3.696,9.962l4.2,-1.558c4.879,-1.817 8.804,-0.829 10.613,4.054c1.816,4.884 -0.513,8.192 -5.396,10.009l-4.2,1.558l11.342,30.562c1.633,4.396 -0.188,9.071 -4.68,10.738c-4.491,1.667 -8.92,-0.688 -10.554,-5.083l-11.341,-30.567Z" style="fill:#fff;fill-rule:nonzero;"/><path d="M1170.05,1523.29c-1.95,-4.262 -0.479,-9.062 3.879,-11.054c4.354,-2 8.95,0.029 10.9,4.288l7.804,17.054l0.188,-0.088c2.166,-3.283 5.129,-6.816 10.816,-9.421c10.229,-4.683 20.804,-3.108 26.354,9.021l12.534,27.379c1.95,4.259 0.479,9.059 -3.879,11.055c-4.359,1.995 -8.95,-0.03 -10.9,-4.292l-10.713,-23.396c-2.342,-5.121 -7.104,-7.521 -12.221,-5.179c-5.116,2.342 -6.412,7.517 -4.071,12.633l10.713,23.4c1.95,4.263 0.479,9.063 -3.879,11.054c-4.359,1.996 -8.95,-0.029 -10.9,-4.291l-26.625,-58.163Z" style="fill:#fff;fill-rule:nonzero;"/><path d="M1265.98,1480.32c-3.125,-5.05 -1.708,-9.479 2.454,-12.062c4.163,-2.579 8.767,-1.875 11.892,3.175l22.608,36.487c6.033,9.742 10.379,22.492 -6.092,32.7c-3.987,2.467 -9.395,4.221 -13.379,4.121c-4.508,-0.15 -6.733,-0.975 -8.983,-4.608c-2.142,-3.454 -2.188,-8.084 2.329,-10.879c3.542,-2.196 7.4,0.075 11.029,-2.175c3.721,-2.305 3.6,-5.667 -0.787,-12.75l-21.071,-34.009Z" style="fill:#fff;fill-rule:nonzero;"/><path d="M1322.2,1486.24c5.963,7.895 14.646,7.987 21.292,2.97c6.65,-5.02 9.017,-13.466 3.054,-21.358l-21.712,-28.75c-3.575,-4.737 -2.571,-9.283 1.337,-12.229c3.904,-2.95 8.55,-2.675 12.125,2.062l21.713,28.75c11.8,15.621 8.233,33.192 -6.725,44.484c-14.959,11.296 -32.746,9.854 -44.546,-5.767l-21.713,-28.75c-3.575,-4.737 -2.57,-9.279 1.334,-12.229c3.908,-2.95 8.554,-2.671 12.129,2.067l21.712,28.75Z" style="fill:#fff;fill-rule:nonzero;"/><path d="M1344.02,1424.09c-4.096,-4.3 -3.617,-8.929 -0.071,-12.304c3.241,-3.088 5.737,-2.734 14.695,-1.488l44.492,6.083l0.154,-0.141l-24.283,-25.488c-4.096,-4.296 -3.617,-8.929 -0.071,-12.304c3.542,-3.379 8.192,-3.629 12.288,0.667l39.658,41.621c4.092,4.3 3.612,8.929 0.067,12.304c-3.242,3.091 -5.813,2.808 -14.696,1.487l-44.492,-6.083l-0.15,0.142l24.283,25.487c4.092,4.3 3.613,8.929 0.067,12.3c-3.542,3.379 -8.192,3.638 -12.283,-0.662l-39.659,-41.621Z" style="fill:#fff;fill-rule:nonzero;"/><path d="M1396.62,1372.74c-4.096,-3.546 -3.725,-8.596 -0.863,-11.9l16.904,-19.538c3.48,-4.021 7.884,-4.337 11.43,-1.271c3.7,3.205 3.866,7.475 0.387,11.492l-11.379,13.154l10.158,8.796l10.429,-12.054c3.475,-4.017 7.805,-4.4 11.43,-1.267c3.62,3.134 3.862,7.471 0.387,11.492l-10.429,12.054l10.479,9.063l11.787,-13.63c3.48,-4.016 7.73,-4.47 11.43,-1.27c3.546,3.07 3.862,7.475 0.387,11.495l-17.312,20.009c-2.863,3.308 -7.805,4.404 -11.9,0.858l-43.325,-37.483Z" style="fill:#fff;fill-rule:nonzero;"/></g></svg>