<?xml version="1.0" encoding="UTF-8" standalone="no"?>
<svg
   xmlns:dc="http://purl.org/dc/elements/1.1/"
   xmlns:cc="http://creativecommons.org/ns#"
   xmlns:rdf="http://www.w3.org/1999/02/22-rdf-syntax-ns#"
   xmlns:svg="http://www.w3.org/2000/svg"
   xmlns="http://www.w3.org/2000/svg"
   viewBox="0 0 885.82623 354.33124"
   height="354.33124"
   width="885.82623"
   xml:space="preserve"
   version="1.1"
   id="svg3336"><metadata
     id="metadata3342"><rdf:RDF><cc:Work
         rdf:about=""><dc:format>image/svg+xml</dc:format><dc:type
           rdf:resource="http://purl.org/dc/dcmitype/StillImage" /><dc:title></dc:title></cc:Work></rdf:RDF></metadata><defs
     id="defs3340"><clipPath
       id="clipPath3350"
       clipPathUnits="userSpaceOnUse"><path
         id="path3352"
         d="m 0,283.465 708.661,0 L 708.661,0 0,0 0,283.465 Z" /></clipPath></defs><g
     transform="matrix(1.25,0,0,-1.25,0,354.33125)"
     id="g3344"><g
       id="g3346"><g
         clip-path="url(#clipPath3350)"
         id="g3348"><path
           id="path3354"
           style="fill:#1e3f6c;fill-opacity:1;fill-rule:nonzero;stroke:none"
           d="m 170.7,204.682 2.378,-0.27 2.392,-0.309 2.404,-0.342 2.412,-0.38 c 0.645,-0.101 1.232,-0.243 1.746,-0.402 0.513,-0.161 0.954,-0.342 1.299,-0.534 0.346,-0.195 0.596,-0.4 0.73,-0.603 0.133,-0.205 0.151,-0.407 0.025,-0.599 -0.109,-0.171 -0.32,-0.319 -0.61,-0.443 -0.297,-0.122 -0.671,-0.216 -1.107,-0.282 -0.435,-0.065 -0.932,-0.102 -1.463,-0.108 -0.536,-0.003 -1.107,0.026 -1.69,0.089 l -0.463,0.056 -0.463,0.071 -2.055,0.329 -2.045,0.294 -2.036,0.265 -2.027,0.232 c -5.295,0.57 -10.551,0.836 -15.604,0.816 -5.129,-0.02 -10.124,-0.334 -14.803,-0.934 -4.814,-0.612 -9.357,-1.537 -13.401,-2.771 -4.213,-1.284 -7.935,-2.922 -10.884,-4.92 -3.519,-2.387 -5.626,-5.069 -6.316,-7.92 -0.738,-3.031 0.132,-6.239 2.6,-9.424 2.615,-3.371 6.987,-6.679 13.023,-9.653 6.289,-3.102 14.251,-5.77 23.579,-7.688 1.035,-0.217 1.951,-0.525 2.726,-0.897 0.777,-0.375 1.413,-0.816 1.877,-1.295 0.465,-0.485 0.76,-1.011 0.853,-1.547 0.096,-0.542 -0.017,-1.101 -0.366,-1.644 -0.313,-0.482 -0.791,-0.914 -1.393,-1.278 -0.608,-0.371 -1.347,-0.679 -2.171,-0.911 -0.828,-0.231 -1.74,-0.391 -2.695,-0.463 -0.962,-0.071 -1.96,-0.058 -2.96,0.052 l -0.37,0.046 -0.371,0.054 -0.367,0.064 -0.366,0.07 c -12.085,2.58 -22.231,6.182 -30.049,10.343 -7.407,3.941 -12.534,8.282 -15.322,12.649 -2.599,4.064 -3.136,8.1 -1.692,11.857 1.34,3.478 4.384,6.708 9.062,9.537 3.883,2.34 8.613,4.236 13.846,5.702 4.986,1.402 10.498,2.435 16.275,3.112 5.59,0.652 11.51,0.981 17.551,0.975 5.944,-0.003 12.103,-0.328 18.311,-0.996 m -3.532,-17.792 0.53,-0.066 0.533,-0.085 c 8.863,-1.593 17.095,-3.811 24.541,-6.524 7.767,-2.832 14.876,-6.274 21.028,-10.21 6.575,-4.197 12.198,-9.052 16.369,-14.401 4.562,-5.849 7.472,-12.405 7.934,-19.441 0.453,-6.922 -1.497,-13.728 -5.772,-20.131 -4.691,-7.028 -12.111,-13.469 -21.969,-18.891 -10.64,-5.854 -23.831,-10.362 -38.83,-13 -15.684,-2.763 -32.698,-3.37 -49.785,-1.445 -2.164,0.245 -4.325,0.532 -6.475,0.857 -2.147,0.325 -4.283,0.689 -6.405,1.095 -2.119,0.406 -4.221,0.851 -6.305,1.335 -2.075,0.487 -4.131,1.008 -6.165,1.574 -1.62,0.459 -2.958,1.164 -3.988,2.04 -1.021,0.867 -1.735,1.903 -2.116,3.033 -0.38,1.117 -0.436,2.323 -0.149,3.552 0.285,1.213 0.9,2.444 1.866,3.634 0.83,1.038 1.856,1.955 3.011,2.735 1.146,0.777 2.424,1.42 3.767,1.915 1.334,0.493 2.734,0.846 4.15,1.03 1.407,0.187 2.828,0.216 4.206,0.062 l 0.51,-0.067 0.506,-0.083 0.5,-0.1 0.497,-0.117 c 1.529,-0.396 3.071,-0.767 4.628,-1.109 1.559,-0.344 3.129,-0.661 4.707,-0.949 1.58,-0.287 3.173,-0.55 4.768,-0.783 1.596,-0.238 3.203,-0.445 4.81,-0.622 12.615,-1.415 25.198,-1.137 36.921,0.597 11.341,1.679 21.54,4.675 30.031,8.679 8.014,3.778 14.344,8.375 18.691,13.509 4.042,4.775 6.318,9.958 6.685,15.346 0.368,5.588 -1.35,10.902 -4.557,15.723 -2.98,4.478 -7.29,8.593 -12.518,12.194 -4.947,3.406 -10.801,6.414 -17.312,8.894 -6.282,2.394 -13.297,4.352 -20.909,5.75 -0.833,0.151 -1.579,0.357 -2.213,0.602 -0.632,0.246 -1.149,0.526 -1.533,0.826 -0.383,0.297 -0.633,0.61 -0.725,0.927 -0.093,0.311 -0.033,0.625 0.2,0.922 0.215,0.261 0.544,0.483 0.962,0.668 0.416,0.182 0.921,0.328 1.484,0.43 0.561,0.104 1.186,0.166 1.842,0.181 0.658,0.017 1.347,-0.009 2.049,-0.086 m 1.98,9.884 1.438,-0.167 1.445,-0.19 1.449,-0.211 1.452,-0.237 c 0.712,-0.119 1.359,-0.282 1.921,-0.471 0.561,-0.19 1.036,-0.408 1.405,-0.64 0.372,-0.231 0.633,-0.479 0.762,-0.728 0.133,-0.248 0.132,-0.498 -0.031,-0.735 -0.136,-0.212 -0.383,-0.397 -0.715,-0.549 -0.339,-0.156 -0.764,-0.276 -1.253,-0.365 -0.493,-0.085 -1.048,-0.137 -1.645,-0.148 -0.599,-0.013 -1.236,0.014 -1.883,0.083 l -0.514,0.065 -0.518,0.083 -1.009,0.165 -1.007,0.151 -1.006,0.132 -1.002,0.117 c -2.632,0.287 -5.239,0.399 -7.729,0.357 -2.505,-0.041 -4.907,-0.243 -7.106,-0.597 -2.232,-0.356 -4.268,-0.868 -5.999,-1.532 -1.764,-0.674 -3.221,-1.507 -4.243,-2.492 -1.19,-1.139 -1.697,-2.374 -1.572,-3.639 0.129,-1.298 0.927,-2.628 2.329,-3.904 1.434,-1.307 3.497,-2.555 6.106,-3.651 2.651,-1.113 5.844,-2.063 9.466,-2.754 5.451,-1.039 10.415,-2.509 14.775,-4.301 4.472,-1.841 8.379,-4.053 11.534,-6.524 3.281,-2.568 5.794,-5.454 7.287,-8.528 1.57,-3.231 2.029,-6.696 1.048,-10.234 -0.931,-3.319 -3.04,-6.418 -6.169,-9.189 -3.275,-2.896 -7.637,-5.409 -12.85,-7.404 -5.4,-2.068 -11.637,-3.555 -18.39,-4.334 -6.882,-0.795 -14.174,-0.838 -21.469,-0.027 -0.929,0.103 -1.855,0.22 -2.78,0.349 -0.923,0.132 -1.842,0.276 -2.761,0.433 -0.918,0.161 -1.831,0.332 -2.738,0.517 -0.908,0.186 -1.811,0.387 -2.707,0.596 -1.312,0.32 -2.433,0.791 -3.335,1.366 -0.9,0.57 -1.578,1.242 -2.014,1.97 -0.43,0.726 -0.622,1.502 -0.551,2.289 0.07,0.783 0.396,1.574 1.003,2.333 0.531,0.658 1.234,1.245 2.058,1.737 0.818,0.488 1.759,0.895 2.772,1.2 1.005,0.305 2.085,0.51 3.187,0.613 1.102,0.1 2.232,0.097 3.343,-0.025 l 0.415,-0.055 0.412,-0.06 0.408,-0.073 0.407,-0.087 1.692,-0.359 1.707,-0.312 1.716,-0.261 1.727,-0.218 c 4.489,-0.493 8.981,-0.509 13.252,-0.086 4.217,0.415 8.171,1.244 11.659,2.427 3.418,1.154 6.362,2.639 8.67,4.383 2.247,1.696 3.879,3.624 4.768,5.73 0.967,2.292 0.963,4.583 0.174,6.755 -0.763,2.104 -2.267,4.105 -4.353,5.911 -2.033,1.759 -4.635,3.345 -7.691,4.678 -2.998,1.307 -6.463,2.38 -10.305,3.136 -5.701,1.119 -10.672,2.663 -14.724,4.47 -3.953,1.758 -6.985,3.745 -8.99,5.805 -1.933,1.986 -2.9,4.027 -2.834,5.999 0.062,1.893 1.074,3.719 3.08,5.375 1.708,1.412 4.013,2.591 6.723,3.535 2.632,0.916 5.669,1.619 8.95,2.096 3.217,0.47 6.696,0.733 10.298,0.77 3.567,0.043 7.293,-0.134 11.055,-0.539" /><path
           id="path3356"
           style="fill:#1e3f6c;fill-opacity:1;fill-rule:nonzero;stroke:none"
           d="m 474.781,186.142 0.964,0 11.798,0 c 0.204,0 0.363,-0.065 0.462,-0.188 0.109,-0.134 0.139,-0.326 0.097,-0.542 l -1.045,-4.938 c -0.115,-0.562 -0.709,-1.053 -1.264,-1.053 l -11.793,0 -0.635,0 -0.131,-0.618 -5.703,-27.032 c -0.225,-1.059 -0.421,-2.583 0.417,-3.616 0.851,-1.051 2.397,-1.26 4.617,-1.26 l 6.612,0 c 0.593,0 0.74,-0.145 0.741,-0.15 l -1.106,-5.354 c -0.05,-0.236 -0.151,-0.727 -1.264,-0.896 -1.972,-0.315 -6.283,-0.658 -9.809,-0.658 -4.562,0 -7.387,0.873 -8.909,2.742 -1.478,1.826 -1.778,4.729 -0.902,8.87 l 8.899,42.177 c 0.128,0.627 0.833,0.967 1.399,1.067 l 7.989,1.327 0.372,-0.105 c 0.127,-0.152 0.174,-0.397 0.127,-0.628 l -1.73,-8.203 -0.203,-0.942 z m -168.874,-6.924 c -0.129,-0.605 -0.499,-0.969 -0.995,-0.969 -2.558,0.344 -9.112,1.004 -13.848,1.004 -3.166,0 -6.507,-0.491 -7.279,-4.133 -0.406,-1.935 1.223,-3.051 2.945,-4.238 l 9.544,-6.69 c 5.483,-3.816 5.99,-7.389 5.038,-11.918 -1.619,-7.67 -8.667,-12.437 -18.395,-12.437 -3.462,0 -10.161,0.437 -14.412,1.643 -0.58,0.154 -0.755,0.436 -0.633,1.013 l 1.059,5.019 c 0.063,0.298 0.461,0.72 1.025,0.72 4.142,-0.5 11.533,-0.919 14.116,-0.919 5.78,0 7.046,2.229 7.555,4.636 0.436,2.083 -0.698,3.342 -3.094,5.063 l -9.986,7.034 c -3.57,2.509 -5.169,6.528 -4.279,10.751 1.694,8.029 7.51,11.931 17.782,11.931 6.539,0 10.082,-0.686 14.373,-1.653 0.432,-0.114 0.654,-0.311 0.508,-1.001 l -1.024,-4.856 z m 65.306,6.876 c 0.154,0 0.267,-0.046 0.347,-0.145 0.122,-0.152 0.163,-0.404 0.108,-0.671 l -6.338,-30.041 c -2.091,-9.907 -9.02,-15.363 -19.514,-15.363 l -2.007,0 c -4.556,0 -7.844,1.042 -9.773,3.098 l -0.473,0.506 -0.558,-0.412 c -2.88,-2.12 -6.709,-3.192 -11.374,-3.192 l -2.008,0 c -5.273,0 -9.036,1.341 -11.183,3.992 -2.064,2.539 -2.594,6.256 -1.585,11.047 l 6.336,30.042 c 0.131,0.608 0.689,1.139 1.197,1.139 l 7.868,0 c 0.154,0 0.27,-0.046 0.35,-0.145 0.121,-0.152 0.163,-0.404 0.105,-0.671 l -6.338,-30.041 c -0.646,-3.069 -0.493,-4.982 0.498,-6.203 1.085,-1.338 2.981,-1.518 4.694,-1.518 l 2.009,0 c 5.681,0 6.928,3.653 7.717,7.397 l 6.337,30.042 c 0.128,0.608 0.686,1.139 1.195,1.139 l 7.951,0 c 0.158,0 0.271,-0.046 0.353,-0.145 0.122,-0.152 0.16,-0.404 0.104,-0.671 l -6.337,-30.041 c -0.57,-2.695 -0.716,-4.776 0.422,-6.177 0.843,-1.039 2.29,-1.544 4.434,-1.544 l 2.01,0 c 4.11,0 6.746,1.21 8.05,7.397 l 6.338,30.042 c 0.128,0.608 0.686,1.139 1.197,1.139 l 7.868,0 z m 25.989,0.634 c 5.488,0 9.753,-1.682 12.334,-4.866 2.907,-3.579 3.711,-8.922 2.336,-15.447 l -0.987,-4.686 c -0.278,-1.299 -0.84,-1.472 -1.35,-1.472 l -27.284,0 -0.636,0 -0.133,-0.62 c -0.597,-2.845 -0.817,-6.473 1.258,-9.025 1.504,-1.858 3.948,-2.797 7.261,-2.797 5.866,0 11.438,0.448 15.646,0.84 0.492,-0.003 0.634,-0.089 0.658,-0.12 l -1.169,-5.719 c -0.231,-1.101 -0.402,-1.379 -1.576,-1.564 -5.413,-0.961 -8.79,-1.415 -16.415,-1.415 -2.585,0 -9.015,0.509 -12.827,5.205 -2.823,3.481 -3.573,8.479 -2.228,14.857 l 1.307,6.191 c 2.725,12.923 11.625,20.638 23.805,20.638 m 5.366,-19.214 c 0.771,3.661 0.317,6.66 -1.316,8.674 -1.361,1.678 -3.455,2.562 -6.064,2.562 -5.82,0 -10.491,-4.284 -11.891,-10.911 l -0.269,-1.277 0.962,0 17.746,0 0.636,0 0.125,0.621 0.071,0.331 z m 54.055,17.067 c 1.429,-0.394 1.399,-0.519 1.229,-1.344 l -8.351,-39.584 c -0.175,-0.82 -0.256,-1.191 -2.156,-1.665 -5.517,-1.346 -11.905,-2.151 -17.098,-2.151 -5.963,0 -10.273,1.586 -12.809,4.714 -2.755,3.398 -3.428,8.565 -1.999,15.348 l 1.362,6.445 c 2.814,13.338 10.997,20.384 23.663,20.384 5.196,0 11.233,-0.803 16.159,-2.147 m -9.389,-6.855 0.16,0.756 -0.75,0.165 c -1.584,0.352 -4.988,0.606 -8.088,0.606 -8.492,0 -11,-6.727 -12.237,-12.586 l -1.358,-6.445 c -1.072,-5.094 -0.788,-8.434 0.895,-10.514 1.29,-1.587 3.409,-2.395 6.296,-2.395 3.086,0 6.583,0.254 8.312,0.599 l 0.502,0.104 0.106,0.502 6.162,29.208 z" /><path
           id="path3358"
           style="fill:#1e3f6c;fill-opacity:1;fill-rule:nonzero;stroke:none"
           d="m 569.274,113.945 -2.081,0 c 0.004,1.706 -1.385,2.159 -2.912,2.159 -3.505,0 -5.433,-3.071 -5.921,-5.747 -0.617,-3.667 0.063,-5.67 4.148,-5.748 0.973,0 1.981,0.157 2.954,0.454 l 0.86,4.046 -3.25,0 0.36,1.704 5.235,0 -1.507,-7.077 c -1.746,-0.498 -3.462,-0.833 -5.091,-0.833 -2.021,0 -3.611,0.259 -4.886,1.647 -1.29,1.387 -1.335,3.787 -0.902,5.807 0.317,1.488 1.157,3.114 2.166,4.401 1.709,2.18 3.996,3.054 6.436,3.054 2.418,0 4.857,-1.111 4.391,-3.867 m -298.778,-10.744 -1.023,14.315 1.985,0 0.707,-11.775 5.933,11.775 2.458,0 0.687,-11.875 5.757,11.875 1.981,0 -7.283,-14.315 -2.202,0 -0.691,12.232 -6.167,-12.232 -2.142,0 z m 33.364,0 -9.137,0 3.041,14.315 8.983,0 -0.365,-1.707 -6.998,0 -0.948,-4.46 6.661,0 -0.36,-1.704 -6.661,0 -1.01,-4.74 7.158,0 -0.364,-1.704 z m 25.065,0 -1.983,0 3.043,14.315 1.981,0 -1.316,-6.208 7.285,6.208 2.716,0 -7.765,-6.405 5.437,-7.91 -2.796,0 -4.986,7.594 -1.616,-7.594 z m 31.289,14.315 1.763,0 -3.041,-14.315 -2.458,0 -4.652,12.153 -2.624,-12.153 -1.763,0 3.041,14.315 2.715,0 4.464,-11.837 2.555,11.837 z m 10.506,-7.159 c 0.887,4.184 3.669,7.455 8.128,7.455 4.458,0 5.845,-3.271 4.954,-7.455 -0.888,-4.183 -3.663,-7.454 -8.122,-7.454 -4.462,0 -5.85,3.271 -4.96,7.454 m 2.082,0 c -0.632,-2.974 -0.391,-5.748 3.236,-5.748 3.63,0 5.051,2.774 5.685,5.748 0.647,3.055 0.387,5.747 -3.242,5.747 -3.627,0 -5.03,-2.692 -5.679,-5.747 m 22.004,-7.156 -1.02,14.315 1.98,0 0.714,-11.775 5.93,11.775 2.458,0 0.684,-11.875 5.758,11.875 1.987,0 -7.291,-14.315 -2.196,0 -0.695,12.232 -6.169,-12.232 -2.14,0 z m 41.71,12.608 -0.944,-4.442 3.271,0 c 2.221,0.1 2.93,1.091 3.167,2.22 0.245,1.131 -0.045,2.125 -2.221,2.222 l -3.273,0 z m 1.514,-6.146 -2.778,0 -1.375,-6.462 -1.983,0 3.041,14.315 5.114,0 c 2.402,0 4.72,-0.754 4.117,-3.591 -0.364,-1.725 -1.681,-3.051 -3.431,-3.447 1.629,-0.457 1.675,-1.369 1.553,-2.974 -0.09,-1.428 -0.254,-2.954 -0.023,-4.303 l -2.126,0 c 0.008,0.852 -0.034,1.786 0.046,2.636 0.113,1.289 0.364,2.462 -0.136,3.174 -0.439,0.652 -1.239,0.593 -2.019,0.652 m 29.042,7.853 -1.842,-8.646 c -0.724,-3.687 -3.149,-5.967 -7.037,-5.967 -3.883,0 -5.339,2.28 -4.501,5.967 l 1.836,8.646 1.986,0 -1.938,-9.121 c -0.462,-2.458 0.719,-3.786 2.982,-3.786 2.256,0 4.006,1.328 4.593,3.786 l 1.935,9.121 1.986,0 z m 20.767,0 1.766,0 -3.041,-14.315 -2.459,0 -4.652,12.153 -2.626,-12.153 -1.767,0 3.043,14.315 2.716,0 4.467,-11.837 2.553,11.837 z m 22.558,0 1.763,0 -3.042,-14.315 -2.459,0 -4.649,12.153 -2.628,-12.153 -1.76,0 3.039,14.315 2.72,0 4.458,-11.837 2.558,11.837 z m 11.562,-14.315 -1.979,0 3.039,14.315 1.982,0 -3.042,-14.315 z m 23.632,14.315 1.764,0 -3.042,-14.315 -2.457,0 -4.651,12.153 -2.622,-12.153 -1.769,0 3.046,14.315 2.714,0 4.465,-11.837 2.552,11.837 z" /><path
           id="path3360"
           style="fill:#a3d06d;fill-opacity:1;fill-rule:nonzero;stroke:none"
           d="m 558.197,140.976 -6.666,0 6.054,28.687 c 1.604,7.617 -1.583,11.594 -9.384,11.594 -3.545,0 -6.873,-0.298 -9.128,-0.857 l -1.438,-0.357 -0.308,-1.452 -7.964,-37.615 -6.67,0 13.019,61.766 6.712,0 -3.081,-14.625 -0.742,-3.504 3.516,0.696 c 2.691,0.533 5.568,0.828 8.11,0.828 10.743,0 16.625,-4.313 14.262,-15.495 l -6.292,-29.666 z m 83.36,18.378 1.416,6.728 c 1.132,5.381 0.987,9.511 -1.25,12.272 -1.746,2.154 -4.498,3.076 -7.783,3.076 -3.263,0 -7.03,-0.265 -8.984,-0.656 l -1.52,-0.311 -0.326,-1.519 -6.429,-30.498 -0.522,-2.46 2.488,-0.367 c 2.35,-0.345 6.291,-0.637 8.602,-0.637 10.145,0 13.012,8.236 14.308,14.372 m -30.088,-35.683 -6.717,0 c 12.635,59.889 12.579,59.882 12.579,59.882 0,0 0.958,0.34 1.13,0.384 5.638,1.377 12.185,2.2 17.472,2.2 12.759,0 16.456,-7.187 13.948,-19.079 l -1.42,-6.727 c -2.801,-13.286 -10.783,-20.057 -23.199,-20.057 -1.113,0 -4.113,0.059 -7.932,0.587 l -2.185,0.305 -0.456,-2.157 -3.22,-15.338 z m -12.542,35.507 1.489,7.077 c 0.973,4.615 0.592,8.699 -1.644,11.453 -1.779,2.192 -4.4,3.2 -7.529,3.2 -7.241,0 -12.419,-5.431 -14.154,-13.674 l -1.488,-7.077 c -1.559,-7.362 0.517,-14.653 9.168,-14.653 7.246,0 12.416,5.431 14.158,13.674 m -28.741,7.077 c 2.612,12.375 11.486,19.882 23.162,19.882 11.988,0 16.344,-7.683 13.974,-18.903 l -1.492,-7.077 c -2.611,-12.375 -11.483,-19.883 -23.161,-19.883 -5.539,0 -9.536,1.675 -11.862,4.546 -4.808,5.93 -2.008,14.874 -0.621,21.435 m -83.279,-24.471 0.87,4.131 c 4.237,-0.511 11.38,-1.159 14.046,-1.159 6.712,0 9.064,3.014 9.758,6.295 0.679,3.215 -1.353,5.078 -3.839,6.87 l -10.432,7.35 c -3.236,2.269 -4.651,5.845 -3.852,9.638 1.573,7.446 6.806,11.228 17.053,11.228 6.294,0 9.841,-0.617 13.902,-1.516 l -0.849,-4.199 c -2.779,0.374 -9.306,1.008 -14.08,1.008 -3.212,0 -8.038,-0.448 -9.12,-5.545 -0.622,-2.951 1.646,-4.601 3.713,-6.016 l 9.962,-6.984 c 5.139,-3.582 5.513,-6.651 4.625,-10.857 -1.495,-7.077 -8.023,-11.754 -17.687,-11.754 -3.416,0 -9.813,0.421 -14.07,1.51" /></g></g></g></svg>